# Blender v2.80 (sub 41) OBJ File: ''
# www.blender.org
mtllib door.mtl
o door
v -1.024000 3.456001 0.192001
v -1.024000 0.000000 -0.192000
v -1.024000 -0.000000 0.192000
v -1.024000 3.456001 -0.191999
v -0.512000 4.096001 0.192001
v -0.512000 3.584001 -0.191999
v -0.512000 3.584001 0.192001
v -0.512000 4.096001 -0.191999
v -0.256000 3.968001 0.192001
v -0.256000 3.840001 0.064001
v -0.256000 3.840001 0.192001
v -0.256000 3.968001 0.064001
v -0.256000 3.968001 -0.063999
v -0.256000 3.840001 -0.191999
v -0.256000 3.840001 -0.063999
v -0.256000 3.968001 -0.191999
v -0.128000 3.584001 0.064001
v -0.128000 3.456001 -0.063999
v -0.128000 3.456001 0.064001
v -0.128000 3.584001 -0.063999
v 0.128000 3.840001 0.192001
v 0.128000 3.712001 0.064001
v 0.128000 3.712001 0.192001
v 0.128000 3.840001 0.064001
v 0.128000 3.840001 -0.063999
v 0.128000 3.712001 -0.191999
v 0.128000 3.712001 -0.063999
v 0.128000 3.840001 -0.191999
v 0.384000 3.968001 0.192001
v 0.384000 3.712001 0.064001
v 0.384000 3.712001 0.192001
v 0.384000 3.968001 0.064001
v 0.384000 3.968001 -0.063999
v 0.384000 3.712001 -0.191999
v 0.384000 3.712001 -0.063999
v 0.384000 3.968001 -0.191999
v 0.896000 3.328001 0.192001
v 0.896000 0.000000 -0.192000
v 0.896000 -0.000000 0.192000
v 0.896000 3.328001 -0.191999
v -0.896000 -0.000000 0.192000
v -0.896000 0.000000 -0.192000
v -0.896000 3.328001 0.192001
v -0.896000 3.328001 -0.191999
v -0.384000 3.712001 0.192001
v -0.384000 3.712001 0.064001
v -0.384000 3.968001 0.192001
v -0.384000 3.968001 0.064001
v -0.384000 3.712001 -0.063999
v -0.384000 3.712001 -0.191999
v -0.384000 3.968001 -0.063999
v -0.384000 3.968001 -0.191999
v -0.128000 3.840001 0.192001
v -0.128000 3.840001 0.064001
v -0.128000 3.968001 0.192001
v -0.128000 3.968001 0.064001
v -0.128000 3.840001 -0.063999
v -0.128000 3.840001 -0.191999
v -0.128000 3.968001 -0.063999
v -0.128000 3.968001 -0.191999
v 0.128000 3.456001 0.064001
v 0.128000 3.456001 -0.063999
v 0.128000 3.584001 0.064001
v 0.128000 3.584001 -0.063999
v 0.256000 3.712001 0.192001
v 0.256000 3.712001 0.064001
v 0.256000 3.840001 0.192001
v 0.256000 3.840001 0.064001
v 0.256000 3.712001 -0.063999
v 0.256000 3.712001 -0.191999
v 0.256000 3.840001 -0.063999
v 0.256000 3.840001 -0.191999
v 0.512000 3.584001 0.192001
v 0.512000 3.584001 -0.191999
v 0.512000 4.096001 0.192001
v 0.512000 4.096001 -0.191999
v 1.024000 -0.000000 0.192000
v 1.024000 0.000000 -0.192000
v 1.024000 3.456001 0.192001
v 1.024000 3.456001 -0.191999
v -0.896000 -0.000000 0.192000
v -1.024000 3.456001 0.192001
v -1.024000 -0.000000 0.192000
v -0.896000 3.328001 0.192001
v -0.384000 3.712001 0.192001
v -0.512000 4.096001 0.192001
v -0.512000 3.584001 0.192001
v -0.384000 3.968001 0.192001
v -0.256000 3.968001 0.192001
v -0.128000 3.840001 0.192001
v -0.256000 3.840001 0.192001
v -0.128000 3.968001 0.192001
v 0.128000 3.712001 0.192001
v 0.256000 3.712001 0.192001
v 0.128000 3.840001 0.192001
v 0.256000 3.840001 0.192001
v 0.384000 3.712001 0.192001
v 0.384000 3.968001 0.192001
v 0.512000 3.584001 0.192001
v 0.512000 4.096001 0.192001
v 0.896000 3.328001 0.192001
v 1.024000 -0.000000 0.192000
v 0.896000 -0.000000 0.192000
v 1.024000 3.456001 0.192001
v -0.256000 3.840001 0.064001
v -0.384000 3.968001 0.064001
v -0.384000 3.712001 0.064001
v -0.256000 3.968001 0.064001
v -0.128000 3.840001 0.064001
v 0.128000 3.456001 0.064001
v -0.128000 3.584001 0.064001
v -0.128000 3.456001 0.064001
v 0.128000 3.584001 0.064001
v 0.128000 3.712001 0.064001
v -0.128000 3.968001 0.064001
v 0.128000 3.840001 0.064001
v 0.256000 3.840001 0.064001
v 0.384000 3.712001 0.064001
v 0.256000 3.712001 0.064001
v 0.384000 3.968001 0.064001
v -0.384000 3.712001 -0.063999
v -0.384000 3.968001 -0.063999
v -0.256000 3.840001 -0.063999
v -0.256000 3.968001 -0.063999
v -0.128000 3.840001 -0.063999
v -0.128000 3.456001 -0.063999
v -0.128000 3.584001 -0.063999
v 0.128000 3.456001 -0.063999
v 0.128000 3.584001 -0.063999
v -0.128000 3.968001 -0.063999
v 0.128000 3.712001 -0.063999
v 0.128000 3.840001 -0.063999
v 0.256000 3.840001 -0.063999
v 0.256000 3.712001 -0.063999
v 0.384000 3.712001 -0.063999
v 0.384000 3.968001 -0.063999
v -1.024000 0.000000 -0.192000
v -1.024000 3.456001 -0.191999
v -0.896000 0.000000 -0.192000
v -0.896000 3.328001 -0.191999
v -0.512000 3.584001 -0.191999
v -0.512000 4.096001 -0.191999
v -0.384000 3.712001 -0.191999
v -0.384000 3.968001 -0.191999
v -0.256000 3.968001 -0.191999
v -0.256000 3.840001 -0.191999
v -0.128000 3.840001 -0.191999
v -0.128000 3.968001 -0.191999
v 0.128000 3.712001 -0.191999
v 0.256000 3.712001 -0.191999
v 0.128000 3.840001 -0.191999
v 0.256000 3.840001 -0.191999
v 0.384000 3.712001 -0.191999
v 0.384000 3.968001 -0.191999
v 0.512000 3.584001 -0.191999
v 0.512000 4.096001 -0.191999
v 0.896000 3.328001 -0.191999
v 0.896000 0.000000 -0.192000
v 1.024000 0.000000 -0.192000
v 1.024000 3.456001 -0.191999
v -1.024000 0.000000 -0.192000
v -0.896000 -0.000000 0.192000
v -1.024000 -0.000000 0.192000
v -0.896000 0.000000 -0.192000
v 0.896000 0.000000 -0.192000
v 1.024000 -0.000000 0.192000
v 0.896000 -0.000000 0.192000
v 1.024000 0.000000 -0.192000
v -0.896000 3.328001 -0.191999
v 0.896000 3.328001 0.192001
v -0.896000 3.328001 0.192001
v 0.896000 3.328001 -0.191999
v -0.128000 3.584001 0.064001
v 0.512000 3.584001 0.192001
v -0.512000 3.584001 0.192001
v 0.128000 3.584001 0.064001
v -0.128000 3.584001 -0.063999
v 0.128000 3.584001 -0.063999
v -0.512000 3.584001 -0.191999
v 0.512000 3.584001 -0.191999
v -0.256000 3.840001 0.064001
v -0.128000 3.840001 0.192001
v -0.256000 3.840001 0.192001
v -0.128000 3.840001 0.064001
v -0.256000 3.840001 -0.191999
v -0.128000 3.840001 -0.063999
v -0.256000 3.840001 -0.063999
v -0.128000 3.840001 -0.191999
v -0.384000 3.968001 0.064001
v -0.256000 3.968001 0.192001
v -0.384000 3.968001 0.192001
v -0.256000 3.968001 0.064001
v -0.128000 3.968001 0.064001
v 0.384000 3.968001 0.192001
v -0.128000 3.968001 0.192001
v 0.384000 3.968001 0.064001
v -0.384000 3.968001 -0.191999
v -0.256000 3.968001 -0.063999
v -0.384000 3.968001 -0.063999
v -0.256000 3.968001 -0.191999
v -0.128000 3.968001 -0.191999
v 0.384000 3.968001 -0.063999
v -0.128000 3.968001 -0.063999
v 0.384000 3.968001 -0.191999
v -1.024000 3.456001 0.192001
v 1.024000 3.456001 0.192001
v -0.128000 3.456001 0.064001
v 0.128000 3.456001 0.064001
v -0.128000 3.456001 -0.063999
v 0.128000 3.456001 -0.063999
v -1.024000 3.456001 -0.191999
v 1.024000 3.456001 -0.191999
v -0.384000 3.712001 0.192001
v 0.128000 3.712001 0.192001
v -0.384000 3.712001 0.064001
v 0.128000 3.712001 0.064001
v 0.256000 3.712001 0.192001
v 0.384000 3.712001 0.192001
v 0.256000 3.712001 0.064001
v 0.384000 3.712001 0.064001
v -0.384000 3.712001 -0.063999
v 0.128000 3.712001 -0.063999
v -0.384000 3.712001 -0.191999
v 0.128000 3.712001 -0.191999
v 0.256000 3.712001 -0.063999
v 0.384000 3.712001 -0.063999
v 0.256000 3.712001 -0.191999
v 0.384000 3.712001 -0.191999
v 0.128000 3.840001 0.192001
v 0.256000 3.840001 0.192001
v 0.128000 3.840001 0.064001
v 0.256000 3.840001 0.064001
v 0.128000 3.840001 -0.063999
v 0.256000 3.840001 -0.063999
v 0.128000 3.840001 -0.191999
v 0.256000 3.840001 -0.191999
v -0.512000 4.096001 0.192001
v 0.512000 4.096001 0.192001
v -0.512000 4.096001 -0.191999
v 0.512000 4.096001 -0.191999
vt 0.970703 0.500000
vt 0.970703 0.500000
vt 0.970703 0.500000
vt 0.970703 0.500000
vt 0.974609 0.500000
vt 0.974609 0.500000
vt 0.974609 0.500000
vt 0.974609 0.500000
vt 0.974609 0.500000
vt 0.974609 0.500000
vt 0.974609 0.500000
vt 0.974609 0.500000
vt 0.974609 0.500000
vt 0.974609 0.500000
vt 0.974609 0.500000
vt 0.974609 0.500000
vt 0.978516 0.500000
vt 0.978516 0.500000
vt 0.978516 0.500000
vt 0.978516 0.500000
vt 0.974609 0.500000
vt 0.974609 0.500000
vt 0.974609 0.500000
vt 0.974609 0.500000
vt 0.974609 0.500000
vt 0.974609 0.500000
vt 0.974609 0.500000
vt 0.974609 0.500000
vt 0.974609 0.500000
vt 0.974609 0.500000
vt 0.974609 0.500000
vt 0.974609 0.500000
vt 0.974609 0.500000
vt 0.974609 0.500000
vt 0.974609 0.500000
vt 0.974609 0.500000
vt 0.970703 0.500000
vt 0.970703 0.500000
vt 0.970703 0.500000
vt 0.970703 0.500000
vt 0.970703 0.500000
vt 0.970703 0.500000
vt 0.970703 0.500000
vt 0.970703 0.500000
vt 0.974609 0.500000
vt 0.974609 0.500000
vt 0.974609 0.500000
vt 0.974609 0.500000
vt 0.974609 0.500000
vt 0.974609 0.500000
vt 0.974609 0.500000
vt 0.974609 0.500000
vt 0.974609 0.500000
vt 0.974609 0.500000
vt 0.974609 0.500000
vt 0.974609 0.500000
vt 0.974609 0.500000
vt 0.974609 0.500000
vt 0.974609 0.500000
vt 0.974609 0.500000
vt 0.978516 0.500000
vt 0.978516 0.500000
vt 0.978516 0.500000
vt 0.978516 0.500000
vt 0.974609 0.500000
vt 0.974609 0.500000
vt 0.974609 0.500000
vt 0.974609 0.500000
vt 0.974609 0.500000
vt 0.974609 0.500000
vt 0.974609 0.500000
vt 0.974609 0.500000
vt 0.974609 0.500000
vt 0.974609 0.500000
vt 0.974609 0.500000
vt 0.974609 0.500000
vt 0.970703 0.500000
vt 0.970703 0.500000
vt 0.970703 0.500000
vt 0.970703 0.500000
vt 0.970703 0.500000
vt 0.970703 0.500000
vt 0.970703 0.500000
vt 0.970703 0.500000
vt 0.974609 0.500000
vt 0.974609 0.500000
vt 0.974609 0.500000
vt 0.974609 0.500000
vt 0.974609 0.500000
vt 0.974609 0.500000
vt 0.974609 0.500000
vt 0.974609 0.500000
vt 0.974609 0.500000
vt 0.974609 0.500000
vt 0.974609 0.500000
vt 0.974609 0.500000
vt 0.974609 0.500000
vt 0.974609 0.500000
vt 0.974609 0.500000
vt 0.974609 0.500000
vt 0.970703 0.500000
vt 0.970703 0.500000
vt 0.970703 0.500000
vt 0.970703 0.500000
vt 0.982422 0.500000
vt 0.982422 0.500000
vt 0.982422 0.500000
vt 0.982422 0.500000
vt 0.982422 0.500000
vt 0.978516 0.500000
vt 0.978516 0.500000
vt 0.978516 0.500000
vt 0.978516 0.500000
vt 0.982422 0.500000
vt 0.982422 0.500000
vt 0.982422 0.500000
vt 0.982422 0.500000
vt 0.982422 0.500000
vt 0.982422 0.500000
vt 0.982422 0.500000
vt 0.982422 0.500000
vt 0.982422 0.500000
vt 0.982422 0.500000
vt 0.982422 0.500000
vt 0.982422 0.500000
vt 0.978516 0.500000
vt 0.978516 0.500000
vt 0.978516 0.500000
vt 0.978516 0.500000
vt 0.982422 0.500000
vt 0.982422 0.500000
vt 0.982422 0.500000
vt 0.982422 0.500000
vt 0.982422 0.500000
vt 0.982422 0.500000
vt 0.982422 0.500000
vt 0.970703 0.500000
vt 0.970703 0.500000
vt 0.970703 0.500000
vt 0.970703 0.500000
vt 0.974609 0.500000
vt 0.974609 0.500000
vt 0.974609 0.500000
vt 0.974609 0.500000
vt 0.974609 0.500000
vt 0.974609 0.500000
vt 0.974609 0.500000
vt 0.974609 0.500000
vt 0.974609 0.500000
vt 0.974609 0.500000
vt 0.974609 0.500000
vt 0.974609 0.500000
vt 0.974609 0.500000
vt 0.974609 0.500000
vt 0.974609 0.500000
vt 0.974609 0.500000
vt 0.970703 0.500000
vt 0.970703 0.500000
vt 0.970703 0.500000
vt 0.970703 0.500000
vt 0.970703 0.500000
vt 0.970703 0.500000
vt 0.970703 0.500000
vt 0.970703 0.500000
vt 0.970703 0.500000
vt 0.970703 0.500000
vt 0.970703 0.500000
vt 0.970703 0.500000
vt 0.970703 0.500000
vt 0.970703 0.500000
vt 0.970703 0.500000
vt 0.970703 0.500000
vt 0.974609 0.500000
vt 0.974609 0.500000
vt 0.974609 0.500000
vt 0.974609 0.500000
vt 0.974609 0.500000
vt 0.974609 0.500000
vt 0.974609 0.500000
vt 0.974609 0.500000
vt 0.974609 0.500000
vt 0.974609 0.500000
vt 0.974609 0.500000
vt 0.974609 0.500000
vt 0.974609 0.500000
vt 0.974609 0.500000
vt 0.974609 0.500000
vt 0.974609 0.500000
vt 0.974609 0.500000
vt 0.974609 0.500000
vt 0.974609 0.500000
vt 0.974609 0.500000
vt 0.974609 0.500000
vt 0.974609 0.500000
vt 0.974609 0.500000
vt 0.974609 0.500000
vt 0.974609 0.500000
vt 0.974609 0.500000
vt 0.974609 0.500000
vt 0.974609 0.500000
vt 0.974609 0.500000
vt 0.974609 0.500000
vt 0.974609 0.500000
vt 0.974609 0.500000
vt 0.970703 0.500000
vt 0.970703 0.500000
vt 0.970703 0.500000
vt 0.970703 0.500000
vt 0.970703 0.500000
vt 0.970703 0.500000
vt 0.970703 0.500000
vt 0.970703 0.500000
vt 0.974609 0.500000
vt 0.974609 0.500000
vt 0.974609 0.500000
vt 0.974609 0.500000
vt 0.974609 0.500000
vt 0.974609 0.500000
vt 0.974609 0.500000
vt 0.974609 0.500000
vt 0.974609 0.500000
vt 0.974609 0.500000
vt 0.974609 0.500000
vt 0.974609 0.500000
vt 0.974609 0.500000
vt 0.974609 0.500000
vt 0.974609 0.500000
vt 0.974609 0.500000
vt 0.974609 0.500000
vt 0.974609 0.500000
vt 0.974609 0.500000
vt 0.974609 0.500000
vt 0.974609 0.500000
vt 0.974609 0.500000
vt 0.974609 0.500000
vt 0.974609 0.500000
vt 0.974609 0.500000
vt 0.974609 0.500000
vt 0.974609 0.500000
vt 0.974609 0.500000
vn -1.0000 0.0000 0.0000
vn 1.0000 0.0000 0.0000
vn 0.0000 -0.0000 1.0000
vn 0.0000 0.0000 -1.0000
vn 0.0000 -1.0000 -0.0000
vn 0.0000 1.0000 -0.0000
usemtl palette.004
s 1
f 1/1/1 2/2/1 3/3/1
f 4/4/1 2/2/1 1/1/1
f 5/5/1 6/6/1 7/7/1
f 8/8/1 6/6/1 5/5/1
f 9/9/1 10/10/1 11/11/1
f 12/12/1 10/10/1 9/9/1
f 13/13/1 14/14/1 15/15/1
f 16/16/1 14/14/1 13/13/1
f 17/17/1 18/18/1 19/19/1
f 20/20/1 18/18/1 17/17/1
f 21/21/1 22/22/1 23/23/1
f 24/24/1 22/22/1 21/21/1
f 25/25/1 26/26/1 27/27/1
f 28/28/1 26/26/1 25/25/1
f 29/29/1 30/30/1 31/31/1
f 32/32/1 30/30/1 29/29/1
f 33/33/1 34/34/1 35/35/1
f 36/36/1 34/34/1 33/33/1
f 37/37/1 38/38/1 39/39/1
f 40/40/1 38/38/1 37/37/1
f 41/41/2 42/42/2 43/43/2
f 43/43/2 42/42/2 44/44/2
f 45/45/2 46/46/2 47/47/2
f 47/47/2 46/46/2 48/48/2
f 49/49/2 50/50/2 51/51/2
f 51/51/2 50/50/2 52/52/2
f 53/53/2 54/54/2 55/55/2
f 55/55/2 54/54/2 56/56/2
f 57/57/2 58/58/2 59/59/2
f 59/59/2 58/58/2 60/60/2
f 61/61/2 62/62/2 63/63/2
f 63/63/2 62/62/2 64/64/2
f 65/65/2 66/66/2 67/67/2
f 67/67/2 66/66/2 68/68/2
f 69/69/2 70/70/2 71/71/2
f 71/71/2 70/70/2 72/72/2
f 73/73/2 74/74/2 75/75/2
f 75/75/2 74/74/2 76/76/2
f 77/77/2 78/78/2 79/79/2
f 79/79/2 78/78/2 80/80/2
f 81/81/3 82/82/3 83/83/3
f 84/84/3 82/82/3 81/81/3
f 85/85/3 86/86/3 87/87/3
f 88/88/3 86/86/3 85/85/3
f 89/89/3 86/86/3 88/88/3
f 90/90/3 89/89/3 91/91/3
f 92/92/3 86/86/3 89/89/3
f 92/92/3 89/89/3 90/90/3
f 93/93/3 85/85/3 87/87/3
f 94/94/3 93/93/3 87/87/3
f 94/94/3 95/95/3 93/93/3
f 96/96/3 95/95/3 94/94/3
f 97/97/3 94/94/3 87/87/3
f 98/98/3 86/86/3 92/92/3
f 99/99/3 97/97/3 87/87/3
f 99/99/3 98/98/3 97/97/3
f 100/100/3 86/86/3 98/98/3
f 100/100/3 98/98/3 99/99/3
f 101/101/3 82/82/3 84/84/3
f 102/102/3 101/101/3 103/103/3
f 104/104/3 82/82/3 101/101/3
f 104/104/3 101/101/3 102/102/3
f 105/105/3 106/106/3 107/107/3
f 108/108/3 106/106/3 105/105/3
f 109/109/3 105/105/3 107/107/3
f 110/110/3 111/111/3 112/112/3
f 113/113/3 111/111/3 110/110/3
f 114/114/3 115/115/3 109/109/3
f 114/114/3 109/109/3 107/107/3
f 116/116/3 115/115/3 114/114/3
f 117/117/3 115/115/3 116/116/3
f 118/118/3 117/117/3 119/119/3
f 120/120/3 115/115/3 117/117/3
f 120/120/3 117/117/3 118/118/3
f 121/121/4 122/122/4 123/123/4
f 123/123/4 122/122/4 124/124/4
f 121/121/4 123/123/4 125/125/4
f 126/126/4 127/127/4 128/128/4
f 128/128/4 127/127/4 129/129/4
f 125/125/4 130/130/4 131/131/4
f 121/121/4 125/125/4 131/131/4
f 131/131/4 130/130/4 132/132/4
f 132/132/4 130/130/4 133/133/4
f 134/134/4 133/133/4 135/135/4
f 133/133/4 130/130/4 136/136/4
f 135/135/4 133/133/4 136/136/4
f 137/137/4 138/138/4 139/139/4
f 139/139/4 138/138/4 140/140/4
f 141/141/4 142/142/4 143/143/4
f 143/143/4 142/142/4 144/144/4
f 144/144/4 142/142/4 145/145/4
f 146/146/4 145/145/4 147/147/4
f 145/145/4 142/142/4 148/148/4
f 147/147/4 145/145/4 148/148/4
f 141/141/4 143/143/4 149/149/4
f 141/141/4 149/149/4 150/150/4
f 149/149/4 151/151/4 150/150/4
f 150/150/4 151/151/4 152/152/4
f 141/141/4 150/150/4 153/153/4
f 148/148/4 142/142/4 154/154/4
f 141/141/4 153/153/4 155/155/4
f 153/153/4 154/154/4 155/155/4
f 154/154/4 142/142/4 156/156/4
f 155/155/4 154/154/4 156/156/4
f 140/140/4 138/138/4 157/157/4
f 158/158/4 157/157/4 159/159/4
f 157/157/4 138/138/4 160/160/4
f 159/159/4 157/157/4 160/160/4
f 161/161/5 162/162/5 163/163/5
f 164/164/5 162/162/5 161/161/5
f 165/165/5 166/166/5 167/167/5
f 168/168/5 166/166/5 165/165/5
f 169/169/5 170/170/5 171/171/5
f 172/172/5 170/170/5 169/169/5
f 173/173/5 174/174/5 175/175/5
f 176/176/5 174/174/5 173/173/5
f 177/177/5 173/173/5 175/175/5
f 178/178/5 174/174/5 176/176/5
f 179/179/5 177/177/5 175/175/5
f 179/179/5 178/178/5 177/177/5
f 180/180/5 174/174/5 178/178/5
f 180/180/5 178/178/5 179/179/5
f 181/181/5 182/182/5 183/183/5
f 184/184/5 182/182/5 181/181/5
f 185/185/5 186/186/5 187/187/5
f 188/188/5 186/186/5 185/185/5
f 189/189/5 190/190/5 191/191/5
f 192/192/5 190/190/5 189/189/5
f 193/193/5 194/194/5 195/195/5
f 196/196/5 194/194/5 193/193/5
f 197/197/5 198/198/5 199/199/5
f 200/200/5 198/198/5 197/197/5
f 201/201/5 202/202/5 203/203/5
f 204/204/5 202/202/5 201/201/5
f 205/205/6 206/206/6 207/207/6
f 207/207/6 206/206/6 208/208/6
f 205/205/6 207/207/6 209/209/6
f 208/208/6 206/206/6 210/210/6
f 205/205/6 209/209/6 211/211/6
f 209/209/6 210/210/6 211/211/6
f 210/210/6 206/206/6 212/212/6
f 211/211/6 210/210/6 212/212/6
f 213/213/6 214/214/6 215/215/6
f 215/215/6 214/214/6 216/216/6
f 217/217/6 218/218/6 219/219/6
f 219/219/6 218/218/6 220/220/6
f 221/221/6 222/222/6 223/223/6
f 223/223/6 222/222/6 224/224/6
f 225/225/6 226/226/6 227/227/6
f 227/227/6 226/226/6 228/228/6
f 229/229/6 230/230/6 231/231/6
f 231/231/6 230/230/6 232/232/6
f 233/233/6 234/234/6 235/235/6
f 235/235/6 234/234/6 236/236/6
f 237/237/6 238/238/6 239/239/6
f 239/239/6 238/238/6 240/240/6
