# Blender v2.80 (sub 41) OBJ File: ''
# www.blender.org
mtllib hole.mtl
o hole
v -0.512000 0.128000 0.000000
v -0.512000 0.000000 -0.128000
v -0.512000 0.000000 0.000000
v -0.512000 0.128000 -0.128000
v -0.384000 0.128000 0.384000
v -0.384000 0.000000 0.000000
v -0.384000 -0.000000 0.384000
v -0.384000 0.128000 0.000000
v -0.384000 0.128000 -0.128000
v -0.384000 0.000000 -0.256000
v -0.384000 0.000000 -0.128000
v -0.384000 0.128000 -0.256000
v -0.384000 0.256000 0.000000
v -0.384000 0.256000 -0.128000
v -0.256000 0.128000 0.512000
v -0.256000 -0.000000 0.384000
v -0.256000 -0.000000 0.512000
v -0.256000 0.128000 0.384000
v -0.256000 0.128000 -0.256000
v -0.256000 0.000000 -0.384000
v -0.256000 0.000000 -0.256000
v -0.256000 0.128000 -0.384000
v -0.256000 0.256000 0.384000
v -0.256000 0.128000 0.000000
v -0.256000 0.256000 0.000000
v -0.256000 0.256000 -0.128000
v -0.256000 0.128000 -0.128000
v -0.256000 0.256000 -0.256000
v -0.128000 0.128000 -0.384000
v -0.128000 0.000000 -0.512000
v -0.128000 0.000000 -0.384000
v -0.128000 0.128000 -0.512000
v -0.128000 0.256000 -0.256000
v -0.128000 0.128000 -0.256000
v -0.128000 0.256000 -0.384000
v 0.000000 0.256000 -0.128000
v 0.000000 0.128000 -0.256000
v 0.000000 0.128000 -0.128000
v 0.000000 0.256000 -0.256000
v 0.128000 0.256000 0.128000
v 0.128000 0.128000 -0.128000
v 0.128000 0.128000 0.128000
v 0.128000 0.256000 -0.128000
v -0.256000 0.128000 0.000000
v -0.256000 0.128000 -0.128000
v -0.256000 0.256000 0.000000
v -0.256000 0.256000 -0.128000
v -0.128000 -0.000000 0.512000
v -0.128000 -0.000000 0.384000
v -0.128000 0.128000 0.512000
v -0.128000 0.128000 0.384000
v -0.128000 0.128000 0.256000
v -0.128000 0.256000 0.384000
v -0.128000 0.256000 0.256000
v -0.128000 0.128000 0.128000
v -0.128000 0.128000 0.000000
v -0.128000 0.256000 0.128000
v -0.128000 0.256000 0.000000
v -0.128000 0.128000 -0.128000
v -0.128000 0.128000 -0.256000
v -0.128000 0.256000 -0.128000
v -0.128000 0.256000 -0.256000
v 0.000000 0.000000 -0.384000
v 0.000000 0.000000 -0.512000
v 0.000000 0.128000 -0.384000
v 0.000000 0.128000 -0.512000
v 0.128000 -0.000000 0.384000
v 0.128000 -0.000000 0.256000
v 0.128000 0.128000 0.384000
v 0.128000 0.128000 0.256000
v 0.128000 0.128000 -0.256000
v 0.128000 0.128000 -0.384000
v 0.128000 0.256000 -0.256000
v 0.128000 0.256000 -0.384000
v 0.256000 -0.000000 0.128000
v 0.256000 0.000000 0.000000
v 0.256000 0.128000 0.128000
v 0.256000 0.000000 -0.256000
v 0.256000 0.000000 -0.384000
v 0.256000 0.128000 -0.256000
v 0.256000 0.128000 -0.384000
v 0.256000 0.128000 0.256000
v 0.256000 0.256000 0.256000
v 0.256000 0.256000 0.000000
v 0.256000 0.128000 -0.128000
v 0.256000 0.256000 -0.128000
v 0.256000 0.256000 -0.256000
v 0.384000 -0.000000 0.256000
v 0.384000 -0.000000 0.128000
v 0.384000 0.128000 0.256000
v 0.384000 0.128000 0.128000
v 0.384000 0.000000 -0.128000
v 0.384000 0.000000 -0.256000
v 0.384000 0.128000 -0.128000
v 0.384000 0.128000 -0.256000
v 0.384000 0.128000 0.000000
v 0.384000 0.256000 0.000000
v 0.384000 0.256000 -0.128000
v 0.512000 0.000000 0.000000
v 0.512000 0.000000 -0.128000
v 0.512000 0.128000 0.000000
v 0.512000 0.128000 -0.128000
v -0.128000 -0.000000 0.512000
v -0.256000 0.128000 0.512000
v -0.256000 -0.000000 0.512000
v -0.128000 0.128000 0.512000
v -0.256000 -0.000000 0.384000
v -0.384000 0.128000 0.384000
v -0.384000 -0.000000 0.384000
v -0.256000 0.128000 0.384000
v -0.128000 0.128000 0.384000
v -0.256000 0.256000 0.384000
v -0.128000 0.256000 0.384000
v 0.128000 -0.000000 0.384000
v -0.128000 -0.000000 0.384000
v 0.128000 0.128000 0.384000
v 0.128000 0.128000 0.256000
v -0.128000 0.256000 0.256000
v -0.128000 0.128000 0.256000
v 0.256000 0.128000 0.256000
v 0.128000 -0.000000 0.256000
v 0.256000 0.256000 0.256000
v 0.384000 -0.000000 0.256000
v 0.384000 0.128000 0.256000
v -0.384000 0.000000 0.000000
v -0.512000 0.128000 0.000000
v -0.512000 0.000000 0.000000
v -0.384000 0.128000 0.000000
v -0.256000 0.128000 0.000000
v -0.384000 0.256000 0.000000
v -0.256000 0.256000 0.000000
v 0.384000 0.128000 0.000000
v 0.256000 0.256000 0.000000
v 0.256000 0.000000 0.000000
v 0.384000 0.256000 0.000000
v 0.512000 0.000000 0.000000
v 0.512000 0.128000 0.000000
v -0.128000 0.128000 -0.128000
v -0.256000 0.256000 -0.128000
v -0.256000 0.128000 -0.128000
v -0.128000 0.256000 -0.128000
v 0.128000 0.128000 -0.128000
v 0.000000 0.256000 -0.128000
v 0.000000 0.128000 -0.128000
v 0.128000 0.256000 -0.128000
v 0.000000 0.128000 -0.256000
v -0.128000 0.256000 -0.256000
v -0.128000 0.128000 -0.256000
v 0.000000 0.256000 -0.256000
v -0.128000 0.128000 0.128000
v -0.128000 0.256000 0.128000
v 0.128000 0.128000 0.128000
v 0.128000 0.256000 0.128000
v 0.256000 -0.000000 0.128000
v 0.256000 0.128000 0.128000
v 0.384000 -0.000000 0.128000
v 0.384000 0.128000 0.128000
v -0.256000 0.128000 0.000000
v -0.256000 0.256000 0.000000
v -0.128000 0.128000 0.000000
v -0.128000 0.256000 0.000000
v -0.512000 0.000000 -0.128000
v -0.512000 0.128000 -0.128000
v -0.384000 0.000000 -0.128000
v -0.384000 0.128000 -0.128000
v -0.384000 0.256000 -0.128000
v -0.256000 0.128000 -0.128000
v -0.256000 0.256000 -0.128000
v 0.256000 0.128000 -0.128000
v 0.256000 0.256000 -0.128000
v 0.384000 0.128000 -0.128000
v 0.384000 0.256000 -0.128000
v 0.384000 0.000000 -0.128000
v 0.512000 0.000000 -0.128000
v 0.512000 0.128000 -0.128000
v -0.384000 0.000000 -0.256000
v -0.384000 0.128000 -0.256000
v -0.256000 0.000000 -0.256000
v -0.256000 0.128000 -0.256000
v -0.256000 0.256000 -0.256000
v -0.128000 0.128000 -0.256000
v -0.128000 0.256000 -0.256000
v 0.128000 0.128000 -0.256000
v 0.128000 0.256000 -0.256000
v 0.256000 0.128000 -0.256000
v 0.256000 0.256000 -0.256000
v 0.256000 0.000000 -0.256000
v 0.384000 0.000000 -0.256000
v 0.384000 0.128000 -0.256000
v -0.256000 0.000000 -0.384000
v -0.256000 0.128000 -0.384000
v -0.128000 0.000000 -0.384000
v -0.128000 0.128000 -0.384000
v -0.128000 0.256000 -0.384000
v 0.000000 0.128000 -0.384000
v 0.128000 0.128000 -0.384000
v 0.000000 0.000000 -0.384000
v 0.128000 0.256000 -0.384000
v 0.256000 0.000000 -0.384000
v 0.256000 0.128000 -0.384000
v -0.128000 0.000000 -0.512000
v -0.128000 0.128000 -0.512000
v 0.000000 0.000000 -0.512000
v 0.000000 0.128000 -0.512000
v -0.256000 -0.000000 0.384000
v -0.128000 -0.000000 0.512000
v -0.256000 -0.000000 0.512000
v -0.128000 -0.000000 0.384000
v 0.128000 -0.000000 0.256000
v -0.384000 -0.000000 0.384000
v 0.128000 -0.000000 0.384000
v -0.128000 -0.000000 0.128000
v 0.384000 -0.000000 0.256000
v 0.128000 -0.000000 0.128000
v 0.256000 -0.000000 0.128000
v 0.384000 -0.000000 0.128000
v -0.384000 0.000000 0.000000
v -0.256000 0.000000 0.000000
v -0.128000 0.000000 0.000000
v 0.256000 0.000000 0.000000
v -0.512000 0.000000 -0.128000
v -0.512000 0.000000 0.000000
v -0.384000 0.000000 -0.128000
v -0.256000 0.000000 -0.128000
v -0.128000 0.000000 -0.128000
v 0.000000 0.000000 -0.128000
v 0.128000 0.000000 -0.128000
v 0.512000 0.000000 0.000000
v 0.384000 0.000000 -0.128000
v 0.512000 0.000000 -0.128000
v -0.384000 0.000000 -0.256000
v -0.256000 0.000000 -0.256000
v -0.128000 0.000000 -0.256000
v 0.000000 0.000000 -0.256000
v 0.256000 0.000000 -0.256000
v 0.384000 0.000000 -0.256000
v -0.256000 0.000000 -0.384000
v -0.128000 0.000000 -0.384000
v 0.000000 0.000000 -0.384000
v 0.256000 0.000000 -0.384000
v -0.128000 0.000000 -0.512000
v 0.000000 0.000000 -0.512000
v -0.256000 0.128000 0.512000
v -0.128000 0.128000 0.512000
v -0.256000 0.128000 0.384000
v -0.128000 0.128000 0.384000
v 0.128000 0.128000 0.384000
v -0.128000 0.128000 0.256000
v 0.128000 0.128000 0.256000
v 0.256000 0.128000 0.256000
v 0.384000 0.128000 0.256000
v 0.256000 0.128000 0.128000
v 0.384000 0.128000 0.128000
v -0.384000 0.128000 0.384000
v -0.384000 0.128000 0.000000
v -0.256000 0.128000 0.000000
v -0.128000 0.128000 0.128000
v 0.128000 0.128000 0.128000
v -0.128000 0.128000 0.000000
v -0.512000 0.128000 0.000000
v -0.512000 0.128000 -0.128000
v -0.384000 0.128000 -0.128000
v -0.256000 0.128000 -0.128000
v -0.128000 0.128000 -0.128000
v 0.000000 0.128000 -0.128000
v 0.128000 0.128000 -0.128000
v 0.384000 0.128000 0.000000
v 0.512000 0.128000 0.000000
v 0.384000 0.128000 -0.128000
v 0.512000 0.128000 -0.128000
v -0.384000 0.128000 -0.256000
v -0.256000 0.128000 -0.256000
v -0.128000 0.128000 -0.256000
v 0.000000 0.128000 -0.256000
v 0.256000 0.128000 -0.128000
v 0.256000 0.128000 -0.256000
v 0.384000 0.128000 -0.256000
v -0.256000 0.128000 -0.384000
v -0.128000 0.128000 -0.384000
v 0.128000 0.128000 -0.256000
v 0.128000 0.128000 -0.384000
v 0.256000 0.128000 -0.384000
v 0.000000 0.128000 -0.384000
v -0.128000 0.128000 -0.512000
v 0.000000 0.128000 -0.512000
v -0.256000 0.256000 0.384000
v -0.128000 0.256000 0.384000
v -0.128000 0.256000 0.256000
v -0.128000 0.256000 0.128000
v 0.256000 0.256000 0.256000
v 0.128000 0.256000 0.128000
v -0.256000 0.256000 0.000000
v -0.128000 0.256000 0.000000
v 0.256000 0.256000 0.000000
v -0.384000 0.256000 0.000000
v -0.384000 0.256000 -0.128000
v -0.256000 0.256000 -0.128000
v 0.384000 0.256000 0.000000
v 0.128000 0.256000 -0.128000
v 0.256000 0.256000 -0.128000
v 0.384000 0.256000 -0.128000
v -0.128000 0.256000 -0.128000
v -0.256000 0.256000 -0.256000
v -0.128000 0.256000 -0.256000
v 0.000000 0.256000 -0.256000
v 0.000000 0.256000 -0.128000
v 0.128000 0.256000 -0.256000
v 0.256000 0.256000 -0.256000
v -0.128000 0.256000 -0.384000
v 0.128000 0.256000 -0.384000
vt 0.970703 0.500000
vt 0.970703 0.500000
vt 0.970703 0.500000
vt 0.970703 0.500000
vt 0.970703 0.500000
vt 0.970703 0.500000
vt 0.970703 0.500000
vt 0.970703 0.500000
vt 0.970703 0.500000
vt 0.970703 0.500000
vt 0.970703 0.500000
vt 0.970703 0.500000
vt 0.970703 0.500000
vt 0.970703 0.500000
vt 0.970703 0.500000
vt 0.970703 0.500000
vt 0.970703 0.500000
vt 0.970703 0.500000
vt 0.970703 0.500000
vt 0.970703 0.500000
vt 0.970703 0.500000
vt 0.970703 0.500000
vt 0.970703 0.500000
vt 0.970703 0.500000
vt 0.970703 0.500000
vt 0.970703 0.500000
vt 0.970703 0.500000
vt 0.970703 0.500000
vt 0.970703 0.500000
vt 0.970703 0.500000
vt 0.970703 0.500000
vt 0.970703 0.500000
vt 0.970703 0.500000
vt 0.970703 0.500000
vt 0.970703 0.500000
vt 0.970703 0.500000
vt 0.970703 0.500000
vt 0.970703 0.500000
vt 0.970703 0.500000
vt 0.970703 0.500000
vt 0.970703 0.500000
vt 0.970703 0.500000
vt 0.970703 0.500000
vt 0.970703 0.500000
vt 0.970703 0.500000
vt 0.970703 0.500000
vt 0.970703 0.500000
vt 0.970703 0.500000
vt 0.970703 0.500000
vt 0.970703 0.500000
vt 0.970703 0.500000
vt 0.970703 0.500000
vt 0.970703 0.500000
vt 0.970703 0.500000
vt 0.970703 0.500000
vt 0.970703 0.500000
vt 0.970703 0.500000
vt 0.970703 0.500000
vt 0.970703 0.500000
vt 0.970703 0.500000
vt 0.970703 0.500000
vt 0.970703 0.500000
vt 0.970703 0.500000
vt 0.970703 0.500000
vt 0.970703 0.500000
vt 0.970703 0.500000
vt 0.970703 0.500000
vt 0.970703 0.500000
vt 0.970703 0.500000
vt 0.970703 0.500000
vt 0.970703 0.500000
vt 0.970703 0.500000
vt 0.970703 0.500000
vt 0.970703 0.500000
vt 0.970703 0.500000
vt 0.970703 0.500000
vt 0.970703 0.500000
vt 0.970703 0.500000
vt 0.970703 0.500000
vt 0.970703 0.500000
vt 0.970703 0.500000
vt 0.970703 0.500000
vt 0.970703 0.500000
vt 0.970703 0.500000
vt 0.970703 0.500000
vt 0.970703 0.500000
vt 0.970703 0.500000
vt 0.970703 0.500000
vt 0.970703 0.500000
vt 0.970703 0.500000
vt 0.970703 0.500000
vt 0.970703 0.500000
vt 0.970703 0.500000
vt 0.970703 0.500000
vt 0.970703 0.500000
vt 0.970703 0.500000
vt 0.970703 0.500000
vt 0.970703 0.500000
vt 0.970703 0.500000
vt 0.970703 0.500000
vt 0.970703 0.500000
vt 0.970703 0.500000
vt 0.970703 0.500000
vt 0.970703 0.500000
vt 0.970703 0.500000
vt 0.970703 0.500000
vt 0.970703 0.500000
vt 0.970703 0.500000
vt 0.970703 0.500000
vt 0.970703 0.500000
vt 0.970703 0.500000
vt 0.970703 0.500000
vt 0.970703 0.500000
vt 0.970703 0.500000
vt 0.970703 0.500000
vt 0.970703 0.500000
vt 0.970703 0.500000
vt 0.970703 0.500000
vt 0.970703 0.500000
vt 0.970703 0.500000
vt 0.970703 0.500000
vt 0.970703 0.500000
vt 0.970703 0.500000
vt 0.970703 0.500000
vt 0.970703 0.500000
vt 0.970703 0.500000
vt 0.970703 0.500000
vt 0.970703 0.500000
vt 0.970703 0.500000
vt 0.970703 0.500000
vt 0.970703 0.500000
vt 0.970703 0.500000
vt 0.970703 0.500000
vt 0.970703 0.500000
vt 0.970703 0.500000
vt 0.970703 0.500000
vt 0.970703 0.500000
vt 0.970703 0.500000
vt 0.970703 0.500000
vt 0.970703 0.500000
vt 0.970703 0.500000
vt 0.970703 0.500000
vt 0.970703 0.500000
vt 0.970703 0.500000
vt 0.970703 0.500000
vt 0.970703 0.500000
vt 0.970703 0.500000
vt 0.970703 0.500000
vt 0.970703 0.500000
vt 0.970703 0.500000
vt 0.970703 0.500000
vt 0.970703 0.500000
vt 0.970703 0.500000
vt 0.970703 0.500000
vt 0.970703 0.500000
vt 0.970703 0.500000
vt 0.970703 0.500000
vt 0.970703 0.500000
vt 0.970703 0.500000
vt 0.970703 0.500000
vt 0.970703 0.500000
vt 0.970703 0.500000
vt 0.970703 0.500000
vt 0.970703 0.500000
vt 0.970703 0.500000
vt 0.970703 0.500000
vt 0.970703 0.500000
vt 0.970703 0.500000
vt 0.970703 0.500000
vt 0.970703 0.500000
vt 0.970703 0.500000
vt 0.970703 0.500000
vt 0.970703 0.500000
vt 0.970703 0.500000
vt 0.970703 0.500000
vt 0.970703 0.500000
vt 0.970703 0.500000
vt 0.970703 0.500000
vt 0.970703 0.500000
vt 0.970703 0.500000
vt 0.970703 0.500000
vt 0.970703 0.500000
vt 0.970703 0.500000
vt 0.970703 0.500000
vt 0.970703 0.500000
vt 0.970703 0.500000
vt 0.970703 0.500000
vt 0.970703 0.500000
vt 0.970703 0.500000
vt 0.970703 0.500000
vt 0.970703 0.500000
vt 0.970703 0.500000
vt 0.970703 0.500000
vt 0.970703 0.500000
vt 0.970703 0.500000
vt 0.970703 0.500000
vt 0.970703 0.500000
vt 0.970703 0.500000
vt 0.970703 0.500000
vt 0.970703 0.500000
vt 0.970703 0.500000
vt 0.970703 0.500000
vt 0.970703 0.500000
vt 0.970703 0.500000
vt 0.970703 0.500000
vt 0.970703 0.500000
vt 0.970703 0.500000
vt 0.970703 0.500000
vt 0.970703 0.500000
vt 0.970703 0.500000
vt 0.970703 0.500000
vt 0.970703 0.500000
vt 0.970703 0.500000
vt 0.970703 0.500000
vt 0.970703 0.500000
vt 0.970703 0.500000
vt 0.970703 0.500000
vt 0.970703 0.500000
vt 0.939453 0.500000
vt 0.939453 0.500000
vt 0.939453 0.500000
vt 0.970703 0.500000
vt 0.970703 0.500000
vt 0.970703 0.500000
vt 0.970703 0.500000
vt 0.970703 0.500000
vt 0.939453 0.500000
vt 0.939453 0.500000
vt 0.970703 0.500000
vt 0.939453 0.500000
vt 0.939453 0.500000
vt 0.970703 0.500000
vt 0.939453 0.500000
vt 0.970703 0.500000
vt 0.970703 0.500000
vt 0.970703 0.500000
vt 0.970703 0.500000
vt 0.970703 0.500000
vt 0.970703 0.500000
vt 0.939453 0.500000
vt 0.970703 0.500000
vt 0.970703 0.500000
vt 0.939453 0.500000
vt 0.970703 0.500000
vt 0.970703 0.500000
vt 0.970703 0.500000
vt 0.970703 0.500000
vt 0.970703 0.500000
vt 0.970703 0.500000
vt 0.970703 0.500000
vt 0.970703 0.500000
vt 0.970703 0.500000
vt 0.970703 0.500000
vt 0.970703 0.500000
vt 0.970703 0.500000
vt 0.970703 0.500000
vt 0.970703 0.500000
vt 0.970703 0.500000
vt 0.970703 0.500000
vt 0.970703 0.500000
vt 0.970703 0.500000
vt 0.970703 0.500000
vt 0.970703 0.500000
vt 0.970703 0.500000
vt 0.970703 0.500000
vt 0.970703 0.500000
vt 0.939453 0.500000
vt 0.939453 0.500000
vt 0.939453 0.500000
vt 0.970703 0.500000
vt 0.970703 0.500000
vt 0.970703 0.500000
vt 0.939453 0.500000
vt 0.939453 0.500000
vt 0.939453 0.500000
vt 0.939453 0.500000
vt 0.939453 0.500000
vt 0.970703 0.500000
vt 0.970703 0.500000
vt 0.970703 0.500000
vt 0.970703 0.500000
vt 0.970703 0.500000
vt 0.970703 0.500000
vt 0.970703 0.500000
vt 0.939453 0.500000
vt 0.939453 0.500000
vt 0.970703 0.500000
vt 0.970703 0.500000
vt 0.970703 0.500000
vt 0.970703 0.500000
vt 0.970703 0.500000
vt 0.970703 0.500000
vt 0.970703 0.500000
vt 0.970703 0.500000
vt 0.970703 0.500000
vt 0.970703 0.500000
vt 0.970703 0.500000
vt 0.970703 0.500000
vt 0.970703 0.500000
vt 0.970703 0.500000
vt 0.970703 0.500000
vt 0.970703 0.500000
vt 0.970703 0.500000
vt 0.970703 0.500000
vt 0.970703 0.500000
vt 0.970703 0.500000
vt 0.970703 0.500000
vt 0.970703 0.500000
vt 0.970703 0.500000
vt 0.970703 0.500000
vt 0.970703 0.500000
vt 0.970703 0.500000
vt 0.970703 0.500000
vt 0.970703 0.500000
vt 0.970703 0.500000
vt 0.970703 0.500000
vt 0.970703 0.500000
vt 0.970703 0.500000
vt 0.970703 0.500000
vt 0.970703 0.500000
vt 0.970703 0.500000
vt 0.970703 0.500000
vt 0.970703 0.500000
vn -1.0000 0.0000 0.0000
vn 1.0000 0.0000 0.0000
vn 0.0000 0.0000 1.0000
vn 0.0000 0.0000 -1.0000
vn 0.0000 -1.0000 -0.0000
vn 0.0000 1.0000 0.0000
usemtl palette
s 1
f 1/1/1 2/2/1 3/3/1
f 4/4/1 2/2/1 1/1/1
f 5/5/1 6/6/1 7/7/1
f 8/8/1 6/6/1 5/5/1
f 9/9/1 10/10/1 11/11/1
f 12/12/1 10/10/1 9/9/1
f 13/13/1 9/9/1 8/8/1
f 14/14/1 9/9/1 13/13/1
f 15/15/1 16/16/1 17/17/1
f 18/18/1 16/16/1 15/15/1
f 19/19/1 20/20/1 21/21/1
f 22/22/1 20/20/1 19/19/1
f 23/23/1 24/24/1 18/18/1
f 25/25/1 24/24/1 23/23/1
f 26/26/1 19/19/1 27/27/1
f 28/28/1 19/19/1 26/26/1
f 29/29/1 30/30/1 31/31/1
f 32/32/1 30/30/1 29/29/1
f 33/33/1 29/29/1 34/34/1
f 35/35/1 29/29/1 33/33/1
f 36/36/1 37/37/1 38/38/1
f 39/39/1 37/37/1 36/36/1
f 40/40/1 41/41/1 42/42/1
f 43/43/1 41/41/1 40/40/1
f 44/44/2 45/45/2 46/46/2
f 46/46/2 45/45/2 47/47/2
f 48/48/2 49/49/2 50/50/2
f 50/50/2 49/49/2 51/51/2
f 51/51/2 52/52/2 53/53/2
f 53/53/2 52/52/2 54/54/2
f 55/55/2 56/56/2 57/57/2
f 57/57/2 56/56/2 58/58/2
f 59/59/2 60/60/2 61/61/2
f 61/61/2 60/60/2 62/62/2
f 63/63/2 64/64/2 65/65/2
f 65/65/2 64/64/2 66/66/2
f 67/67/2 68/68/2 69/69/2
f 69/69/2 68/68/2 70/70/2
f 71/71/2 72/72/2 73/73/2
f 73/73/2 72/72/2 74/74/2
f 75/75/2 76/76/2 77/77/2
f 78/78/2 79/79/2 80/80/2
f 80/80/2 79/79/2 81/81/2
f 82/82/2 77/77/2 83/83/2
f 77/77/2 76/76/2 84/84/2
f 83/83/2 77/77/2 84/84/2
f 85/85/2 80/80/2 86/86/2
f 86/86/2 80/80/2 87/87/2
f 88/88/2 89/89/2 90/90/2
f 90/90/2 89/89/2 91/91/2
f 92/92/2 93/93/2 94/94/2
f 94/94/2 93/93/2 95/95/2
f 96/96/2 94/94/2 97/97/2
f 97/97/2 94/94/2 98/98/2
f 99/99/2 100/100/2 101/101/2
f 101/101/2 100/100/2 102/102/2
f 103/103/3 104/104/3 105/105/3
f 106/106/3 104/104/3 103/103/3
f 107/107/3 108/108/3 109/109/3
f 110/110/3 108/108/3 107/107/3
f 111/111/3 112/112/3 110/110/3
f 113/113/3 112/112/3 111/111/3
f 114/114/3 111/111/3 115/115/3
f 116/116/3 111/111/3 114/114/3
f 117/117/3 118/118/3 119/119/3
f 120/120/3 118/118/3 117/117/3
f 120/120/3 117/117/3 121/121/3
f 122/122/3 118/118/3 120/120/3
f 123/123/3 120/120/3 121/121/3
f 124/124/3 120/120/3 123/123/3
f 125/125/3 126/126/3 127/127/3
f 128/128/3 126/126/3 125/125/3
f 129/129/3 130/130/3 128/128/3
f 131/131/3 130/130/3 129/129/3
f 132/132/3 133/133/3 134/134/3
f 135/135/3 133/133/3 132/132/3
f 136/136/3 132/132/3 134/134/3
f 137/137/3 132/132/3 136/136/3
f 138/138/3 139/139/3 140/140/3
f 141/141/3 139/139/3 138/138/3
f 142/142/3 143/143/3 144/144/3
f 145/145/3 143/143/3 142/142/3
f 146/146/3 147/147/3 148/148/3
f 149/149/3 147/147/3 146/146/3
f 150/150/4 151/151/4 152/152/4
f 152/152/4 151/151/4 153/153/4
f 154/154/4 155/155/4 156/156/4
f 156/156/4 155/155/4 157/157/4
f 158/158/4 159/159/4 160/160/4
f 160/160/4 159/159/4 161/161/4
f 162/162/4 163/163/4 164/164/4
f 164/164/4 163/163/4 165/165/4
f 165/165/4 166/166/4 167/167/4
f 167/167/4 166/166/4 168/168/4
f 169/169/4 170/170/4 171/171/4
f 171/171/4 170/170/4 172/172/4
f 173/173/4 171/171/4 174/174/4
f 174/174/4 171/171/4 175/175/4
f 176/176/4 177/177/4 178/178/4
f 178/178/4 177/177/4 179/179/4
f 179/179/4 180/180/4 181/181/4
f 181/181/4 180/180/4 182/182/4
f 183/183/4 184/184/4 185/185/4
f 185/185/4 184/184/4 186/186/4
f 187/187/4 185/185/4 188/188/4
f 188/188/4 185/185/4 189/189/4
f 190/190/4 191/191/4 192/192/4
f 192/192/4 191/191/4 193/193/4
f 193/193/4 194/194/4 195/195/4
f 195/195/4 194/194/4 196/196/4
f 197/197/4 195/195/4 196/196/4
f 196/196/4 194/194/4 198/198/4
f 197/197/4 196/196/4 199/199/4
f 199/199/4 196/196/4 200/200/4
f 201/201/4 202/202/4 203/203/4
f 203/203/4 202/202/4 204/204/4
f 205/205/5 206/206/5 207/207/5
f 208/208/5 206/206/5 205/205/5
f 209/209/5 205/205/5 210/210/5
f 209/209/5 211/211/5 208/208/5
f 209/209/5 208/208/5 205/205/5
f 212/212/5 209/209/5 210/210/5
f 212/212/5 213/213/5 209/209/5
f 214/214/5 213/213/5 212/212/5
f 215/215/5 213/213/5 214/214/5
f 216/216/5 213/213/5 215/215/5
f 217/217/5 212/212/5 210/210/5
f 218/218/5 212/212/5 217/217/5
f 219/219/5 214/220/5 212/221/5
f 219/222/5 212/212/5 218/218/5
f 220/223/5 215/215/5 214/214/5
f 221/224/5 218/218/5 217/217/5
f 221/224/5 217/217/5 222/225/5
f 223/226/5 218/218/5 221/224/5
f 224/227/5 219/219/5 218/228/5
f 224/229/5 218/218/5 223/226/5
f 225/230/5 214/220/5 219/219/5
f 225/230/5 219/219/5 224/227/5
f 226/231/5 214/220/5 225/230/5
f 227/232/5 220/223/5 214/214/5
f 227/233/5 214/220/5 226/231/5
f 227/232/5 228/234/5 220/223/5
f 229/235/5 228/234/5 227/232/5
f 230/236/5 228/234/5 229/235/5
f 231/237/5 225/238/5 224/229/5
f 231/237/5 224/229/5 223/226/5
f 232/239/5 225/238/5 231/237/5
f 233/240/5 226/231/5 225/230/5
f 233/241/5 225/238/5 232/239/5
f 234/242/5 229/235/5 227/232/5
f 234/243/5 226/231/5 233/240/5
f 234/242/5 227/232/5 226/244/5
f 235/245/5 229/235/5 234/242/5
f 236/246/5 229/235/5 235/245/5
f 237/247/5 233/241/5 232/239/5
f 237/247/5 235/245/5 234/242/5
f 237/247/5 234/242/5 233/241/5
f 238/248/5 235/245/5 237/247/5
f 239/249/5 235/245/5 238/248/5
f 240/250/5 235/245/5 239/249/5
f 241/251/5 239/249/5 238/248/5
f 242/252/5 239/249/5 241/251/5
f 243/253/6 244/254/6 245/255/6
f 245/255/6 244/254/6 246/256/6
f 246/256/6 247/257/6 248/258/6
f 248/258/6 247/257/6 249/259/6
f 250/260/6 251/261/6 252/262/6
f 252/262/6 251/261/6 253/263/6
f 254/264/6 245/255/6 255/265/6
f 255/265/6 245/255/6 256/266/6
f 257/267/6 258/268/6 259/269/6
f 260/270/6 255/265/6 261/271/6
f 261/271/6 255/265/6 262/272/6
f 256/273/6 259/269/6 263/274/6
f 259/269/6 258/268/6 264/275/6
f 263/274/6 259/269/6 264/275/6
f 264/275/6 258/268/6 265/276/6
f 265/276/6 258/268/6 266/277/6
f 267/278/6 268/279/6 269/280/6
f 269/280/6 268/279/6 270/281/6
f 262/272/6 263/282/6 271/283/6
f 271/283/6 263/282/6 272/284/6
f 264/275/6 265/276/6 273/285/6
f 273/285/6 265/276/6 274/286/6
f 275/287/6 269/280/6 276/288/6
f 276/288/6 269/280/6 277/289/6
f 272/284/6 273/290/6 278/291/6
f 278/291/6 273/290/6 279/292/6
f 280/293/6 276/288/6 281/294/6
f 281/294/6 276/288/6 282/295/6
f 279/292/6 283/296/6 284/297/6
f 284/297/6 283/296/6 285/298/6
f 286/299/6 287/300/6 288/301/6
f 286/299/6 288/301/6 289/302/6
f 288/301/6 290/303/6 289/302/6
f 289/302/6 290/303/6 291/304/6
f 286/299/6 289/302/6 292/305/6
f 292/305/6 289/302/6 293/306/6
f 291/304/6 290/303/6 294/307/6
f 295/308/6 292/305/6 296/309/6
f 296/309/6 292/305/6 297/310/6
f 294/307/6 298/311/6 299/312/6
f 291/304/6 294/307/6 299/312/6
f 299/312/6 298/311/6 300/313/6
f 300/313/6 298/311/6 301/314/6
f 297/310/6 302/315/6 303/316/6
f 303/316/6 302/315/6 304/317/6
f 299/312/6 300/313/6 305/318/6
f 306/319/6 299/312/6 305/318/6
f 305/318/6 300/313/6 307/320/6
f 307/320/6 300/313/6 308/321/6
f 304/317/6 305/318/6 309/322/6
f 305/318/6 307/320/6 309/322/6
f 309/322/6 307/320/6 310/323/6
