# Blender v2.80 (sub 41) OBJ File: ''
# www.blender.org
mtllib lever.mtl
o lever
v -0.768000 0.128000 0.768000
v -0.768000 0.000000 -0.768000
v -0.768000 -0.000000 0.768000
v -0.768000 0.128000 -0.768000
v 0.768000 -0.000000 0.768000
v 0.768000 0.000000 -0.768000
v 0.768000 0.128000 0.768000
v 0.768000 0.128000 -0.768000
v 0.768000 -0.000000 0.768000
v -0.768000 0.128000 0.768000
v -0.768000 -0.000000 0.768000
v 0.768000 0.128000 0.768000
v -0.768000 0.000000 -0.768000
v -0.768000 0.128000 -0.768000
v 0.768000 0.000000 -0.768000
v 0.768000 0.128000 -0.768000
v -0.384000 -0.000000 0.512000
v 0.768000 -0.000000 0.768000
v -0.768000 -0.000000 0.768000
v -0.256000 -0.000000 0.512000
v -0.512000 -0.000000 0.384000
v -0.384000 -0.000000 0.384000
v -0.640000 -0.000000 0.256000
v -0.512000 -0.000000 0.256000
v -0.256000 -0.000000 0.256000
v -0.128000 -0.000000 0.256000
v -0.640000 -0.000000 0.128000
v -0.512000 -0.000000 0.128000
v -0.128000 -0.000000 0.128000
v 0.640000 -0.000000 0.128000
v 0.512000 0.000000 0.000000
v 0.640000 0.000000 0.000000
v -0.512000 0.000000 -0.256000
v -0.384000 0.000000 -0.256000
v -0.256000 0.000000 -0.256000
v 0.384000 0.000000 -0.256000
v -0.384000 0.000000 -0.512000
v -0.256000 0.000000 -0.512000
v 0.384000 0.000000 -0.512000
v 0.512000 0.000000 -0.512000
v -0.768000 0.000000 -0.768000
v 0.768000 0.000000 -0.768000
v -0.768000 0.128000 0.768000
v 0.768000 0.128000 0.768000
v -0.384000 0.128000 0.512000
v -0.256000 0.128000 0.512000
v -0.512000 0.128000 0.384000
v -0.384000 0.128000 0.384000
v -0.640000 0.128000 0.256000
v -0.512000 0.128000 0.256000
v -0.256000 0.128000 0.256000
v -0.128000 0.128000 0.256000
v -0.640000 0.128000 0.128000
v -0.512000 0.128000 0.128000
v -0.128000 0.128000 0.128000
v 0.640000 0.128000 0.128000
v 0.512000 0.128000 0.000000
v 0.640000 0.128000 0.000000
v -0.512000 0.128000 -0.256000
v -0.384000 0.128000 -0.256000
v -0.256000 0.128000 -0.256000
v 0.384000 0.128000 -0.256000
v -0.384000 0.128000 -0.512000
v -0.256000 0.128000 -0.512000
v 0.384000 0.128000 -0.512000
v 0.512000 0.128000 -0.512000
v -0.768000 0.128000 -0.768000
v 0.768000 0.128000 -0.768000
vt 0.939453 0.500000
vt 0.939453 0.500000
vt 0.939453 0.500000
vt 0.939453 0.500000
vt 0.939453 0.500000
vt 0.939453 0.500000
vt 0.939453 0.500000
vt 0.939453 0.500000
vt 0.939453 0.500000
vt 0.939453 0.500000
vt 0.939453 0.500000
vt 0.939453 0.500000
vt 0.939453 0.500000
vt 0.939453 0.500000
vt 0.939453 0.500000
vt 0.939453 0.500000
vt 0.939453 0.500000
vt 0.939453 0.500000
vt 0.939453 0.500000
vt 0.939453 0.500000
vt 0.939453 0.500000
vt 0.970703 0.500000
vt 0.970703 0.500000
vt 0.970703 0.500000
vt 0.939453 0.500000
vt 0.939453 0.500000
vt 0.970703 0.500000
vt 0.970703 0.500000
vt 0.939453 0.500000
vt 0.939453 0.500000
vt 0.970703 0.500000
vt 0.939453 0.500000
vt 0.970703 0.500000
vt 0.970703 0.500000
vt 0.939453 0.500000
vt 0.970703 0.500000
vt 0.970703 0.500000
vt 0.939453 0.500000
vt 0.970703 0.500000
vt 0.939453 0.500000
vt 0.970703 0.500000
vt 0.970703 0.500000
vt 0.939453 0.500000
vt 0.970703 0.500000
vt 0.939453 0.500000
vt 0.939453 0.500000
vt 0.970703 0.500000
vt 0.970703 0.500000
vt 0.970703 0.500000
vt 0.970703 0.500000
vt 0.939453 0.500000
vt 0.939453 0.500000
vt 0.970703 0.500000
vt 0.939453 0.500000
vt 0.939453 0.500000
vt 0.939453 0.500000
vt 0.970703 0.500000
vt 0.970703 0.500000
vt 0.939453 0.500000
vt 0.939453 0.500000
vt 0.939453 0.500000
vt 0.970703 0.500000
vt 0.939453 0.500000
vt 0.939453 0.500000
vt 0.939453 0.500000
vt 0.939453 0.500000
vt 0.939453 0.500000
vt 0.939453 0.500000
vt 0.939453 0.500000
vt 0.970703 0.500000
vt 0.970703 0.500000
vt 0.970703 0.500000
vt 0.939453 0.500000
vt 0.939453 0.500000
vt 0.970703 0.500000
vt 0.970703 0.500000
vt 0.939453 0.500000
vt 0.939453 0.500000
vt 0.970703 0.500000
vt 0.939453 0.500000
vt 0.970703 0.500000
vt 0.970703 0.500000
vt 0.939453 0.500000
vt 0.970703 0.500000
vt 0.970703 0.500000
vt 0.939453 0.500000
vt 0.970703 0.500000
vt 0.939453 0.500000
vt 0.970703 0.500000
vt 0.970703 0.500000
vt 0.939453 0.500000
vt 0.970703 0.500000
vt 0.939453 0.500000
vt 0.939453 0.500000
vt 0.970703 0.500000
vt 0.970703 0.500000
vt 0.970703 0.500000
vt 0.970703 0.500000
vt 0.939453 0.500000
vt 0.939453 0.500000
vt 0.970703 0.500000
vt 0.939453 0.500000
vt 0.939453 0.500000
vt 0.939453 0.500000
vt 0.970703 0.500000
vt 0.970703 0.500000
vt 0.939453 0.500000
vt 0.939453 0.500000
vt 0.939453 0.500000
vt 0.970703 0.500000
vt 0.939453 0.500000
vt 0.939453 0.500000
vn -1.0000 0.0000 0.0000
vn 1.0000 0.0000 0.0000
vn 0.0000 0.0000 1.0000
vn 0.0000 0.0000 -1.0000
vn -0.0000 -1.0000 -0.0000
vn 0.0000 1.0000 0.0000
usemtl palette.002
s 1
f 1/1/1 2/2/1 3/3/1
f 4/4/1 2/2/1 1/1/1
f 5/5/2 6/6/2 7/7/2
f 7/7/2 6/6/2 8/8/2
f 9/9/3 10/10/3 11/11/3
f 12/12/3 10/10/3 9/9/3
f 13/13/4 14/14/4 15/15/4
f 15/15/4 14/14/4 16/16/4
f 17/17/5 18/18/5 19/19/5
f 20/20/5 18/18/5 17/17/5
f 21/21/5 17/17/5 19/19/5
f 22/22/5 20/23/5 17/24/5
f 22/25/5 17/17/5 21/21/5
f 23/26/5 21/21/5 19/19/5
f 24/27/5 22/22/5 21/28/5
f 24/29/5 21/21/5 23/26/5
f 25/30/5 18/18/5 20/20/5
f 25/31/5 22/22/5 24/27/5
f 25/31/5 20/23/5 22/22/5
f 26/32/5 18/18/5 25/30/5
f 27/33/5 24/27/5 23/34/5
f 27/35/5 23/26/5 19/19/5
f 27/33/5 26/36/5 25/31/5
f 27/33/5 25/31/5 24/27/5
f 28/37/5 26/36/5 27/33/5
f 29/38/5 18/18/5 26/32/5
f 29/39/5 26/36/5 28/37/5
f 30/40/5 18/18/5 29/38/5
f 31/41/5 29/39/5 28/37/5
f 31/41/5 30/42/5 29/39/5
f 32/43/5 18/18/5 30/40/5
f 32/44/5 30/42/5 31/41/5
f 33/45/5 28/46/5 27/35/5
f 33/47/5 31/41/5 28/37/5
f 34/48/5 31/41/5 33/47/5
f 35/49/5 31/41/5 34/48/5
f 36/50/5 31/41/5 35/49/5
f 37/51/5 34/52/5 33/45/5
f 37/53/5 35/49/5 34/48/5
f 38/54/5 36/55/5 35/56/5
f 38/57/5 35/49/5 37/53/5
f 39/58/5 31/41/5 36/50/5
f 39/59/5 36/55/5 38/54/5
f 40/60/5 32/43/5 31/61/5
f 40/62/5 31/41/5 39/58/5
f 41/63/5 27/35/5 19/19/5
f 41/63/5 39/59/5 38/54/5
f 41/63/5 40/60/5 39/59/5
f 41/63/5 37/51/5 33/45/5
f 41/63/5 38/54/5 37/51/5
f 41/63/5 33/45/5 27/35/5
f 42/64/5 18/18/5 32/43/5
f 42/64/5 40/60/5 41/63/5
f 42/64/5 32/43/5 40/60/5
f 43/65/6 44/66/6 45/67/6
f 45/67/6 44/66/6 46/68/6
f 43/65/6 45/67/6 47/69/6
f 45/70/6 46/71/6 48/72/6
f 47/69/6 45/67/6 48/73/6
f 43/65/6 47/69/6 49/74/6
f 47/75/6 48/72/6 50/76/6
f 49/74/6 47/69/6 50/77/6
f 46/68/6 44/66/6 51/78/6
f 50/76/6 48/72/6 51/79/6
f 48/72/6 46/71/6 51/79/6
f 51/78/6 44/66/6 52/80/6
f 49/81/6 50/76/6 53/82/6
f 43/65/6 49/74/6 53/83/6
f 51/79/6 52/84/6 53/82/6
f 50/76/6 51/79/6 53/82/6
f 53/82/6 52/84/6 54/85/6
f 52/80/6 44/66/6 55/86/6
f 54/85/6 52/84/6 55/87/6
f 55/86/6 44/66/6 56/88/6
f 54/85/6 55/87/6 57/89/6
f 55/87/6 56/90/6 57/89/6
f 56/88/6 44/66/6 58/91/6
f 57/89/6 56/90/6 58/92/6
f 53/83/6 54/93/6 59/94/6
f 54/85/6 57/89/6 59/95/6
f 59/95/6 57/89/6 60/96/6
f 60/96/6 57/89/6 61/97/6
f 61/97/6 57/89/6 62/98/6
f 59/94/6 60/99/6 63/100/6
f 60/96/6 61/97/6 63/101/6
f 61/102/6 62/103/6 64/104/6
f 63/101/6 61/97/6 64/105/6
f 62/98/6 57/89/6 65/106/6
f 64/104/6 62/103/6 65/107/6
f 57/108/6 58/91/6 66/109/6
f 65/106/6 57/89/6 66/110/6
f 43/65/6 53/83/6 67/111/6
f 64/104/6 65/107/6 67/111/6
f 65/107/6 66/109/6 67/111/6
f 59/94/6 63/100/6 67/111/6
f 63/100/6 64/104/6 67/111/6
f 53/83/6 59/94/6 67/111/6
f 58/91/6 44/66/6 68/112/6
f 67/111/6 66/109/6 68/112/6
f 66/109/6 58/91/6 68/112/6
