# MagicaVoxel @ Ephtracy

# group
o 

# material
mtllib corgi.mtl
usemtl palette

# normals
vn -1 0 0
vn 1 0 0
vn 0 0 1
vn 0 0 -1
vn 0 -1 0
vn 0 1 0

# texcoords
vt 0.970703 0.5
vt 0.974609 0.5
vt 0.978516 0.5

# verts
v -0.8 0.4 0.1
v -0.8 0.4 -0.1
v -0.8 0.6 0.1
v -0.8 0.6 -0.1
v -0.7 0.3 0.3
v -0.7 0.3 -0.3
v -0.7 0.4 0.1
v -0.7 0.4 -0.1
v -0.7 0.6 0.1
v -0.7 0.6 -0.1
v -0.7 0.7 0.3
v -0.7 0.7 -0.3
v -0.6 0.1 0.3
v -0.6 0.1 -0.3
v -0.6 0.3 0.3
v -0.6 0.3 -0.3
v -0.6 0.7 0.3
v -0.6 0.7 -0.3
v -0.6 0.8 0.3
v -0.6 0.8 -0.3
v -0.5 0 0.3
v -0.5 0 0.1
v -0.5 0 -0.1
v -0.5 0 -0.3
v -0.5 0.1 0.3
v -0.5 0.1 0.1
v -0.5 0.1 -0.1
v -0.5 0.1 -0.3
v 0.1 0.8 0.3
v 0.1 0.8 -0.3
v 0.1 0.9 0.3
v 0.1 0.9 -0.3
v 0.2 0.1 0.3
v 0.2 0.1 -0.3
v 0.2 0.2 0.3
v 0.2 0.2 -0.3
v 0.2 0.9 0.3
v 0.2 0.9 -0.3
v 0.2 1 0.3
v 0.2 1 -0.3
v 0.2 1.3 0.3
v 0.2 1.3 0.2
v 0.2 1.3 0.1
v 0.2 1.3 -0.1
v 0.2 1.3 -0.2
v 0.2 1.3 -0.3
v 0.2 1.4 0.2
v 0.2 1.4 0.1
v 0.2 1.4 -0.1
v 0.2 1.4 -0.2
v 0.3 0 0.3
v 0.3 0 0.1
v 0.3 0 -0.1
v 0.3 0 -0.3
v 0.3 0.1 0.3
v 0.3 0.1 0.1
v 0.3 0.1 -0.1
v 0.3 0.1 -0.3
v -0.4 0.1 0.3
v -0.4 0.1 0.1
v -0.4 0.1 -0.1
v -0.4 0.1 -0.3
v -0.4 0.2 0.3
v -0.4 0.2 -0.3
v -0.3 0 0.3
v -0.3 0 0.1
v -0.3 0 -0.1
v -0.3 0 -0.3
v -0.3 0.1 0.3
v -0.3 0.1 0.1
v -0.3 0.1 -0.1
v -0.3 0.1 -0.3
v 0.3 0.1 0.1
v 0.3 0.1 -0.1
v 0.3 0.2 0.1
v 0.3 0.2 -0.1
v 0.3 1.2 0.1
v 0.3 1.2 -0.1
v 0.3 1.3 0.2
v 0.3 1.3 0.1
v 0.3 1.3 -0.1
v 0.3 1.3 -0.2
v 0.3 1.4 0.2
v 0.3 1.4 0.1
v 0.3 1.4 -0.1
v 0.3 1.4 -0.2
v 0.4 0.1 0.3
v 0.4 0.1 0.1
v 0.4 0.1 -0.1
v 0.4 0.1 -0.3
v 0.4 0.2 0.3
v 0.4 0.2 0.1
v 0.4 0.2 -0.1
v 0.4 0.2 -0.3
v 0.4 1.2 0.3
v 0.4 1.2 0.1
v 0.4 1.2 -0.1
v 0.4 1.2 -0.3
v 0.4 1.3 0.3
v 0.4 1.3 0.1
v 0.4 1.3 -0.1
v 0.4 1.3 -0.3
v 0.5 0 0.3
v 0.5 0 0.1
v 0.5 0 -0.1
v 0.5 0 -0.3
v 0.5 0.1 0.3
v 0.5 0.1 0.1
v 0.5 0.1 -0.1
v 0.5 0.1 -0.3
v 0.5 0.2 0.3
v 0.5 0.2 -0.3
v 0.5 0.3 0.3
v 0.5 0.3 -0.3
v 0.5 1 0.3
v 0.5 1 0.2
v 0.5 1 -0.2
v 0.5 1 -0.3
v 0.5 1.1 0.3
v 0.5 1.1 0.2
v 0.5 1.1 -0.2
v 0.5 1.1 -0.3
v 0.5 1.2 0.3
v 0.5 1.2 0.2
v 0.5 1.2 -0.2
v 0.5 1.2 -0.3
v 0.6 0.3 0.3
v 0.6 0.3 -0.3
v 0.6 0.4 0.2
v 0.6 0.4 -0.2
v 0.6 0.8 0.2
v 0.6 0.8 -0.2
v 0.6 0.9 0.2
v 0.6 0.9 -0.2
v 0.6 1 0.3
v 0.6 1 0.2
v 0.6 1 0.1
v 0.6 1 -0.1
v 0.6 1 -0.2
v 0.6 1 -0.3
v 0.6 1.1 0.2
v 0.6 1.1 0.1
v 0.6 1.1 -0.1
v 0.6 1.1 -0.2
v 0.6 1.2 0.2
v 0.6 1.2 -0.2
v 0.7 0.4 0.2
v 0.7 0.4 -0.2
v 0.7 0.8 0.2
v 0.7 0.8 -0.2
v 0.7 0.9 0.2
v 0.7 0.9 0.1
v 0.7 0.9 -0.1
v 0.7 0.9 -0.2
v 0.7 1 0.2
v 0.7 1 0.1
v 0.7 1 -0.1
v 0.7 1 -0.2
v 0.8 0.9 0.1
v 0.8 0.9 -0.1
v 0.8 1 0.1
v 0.8 1 -0.1
v 0.8 1.1 0.1
v 0.8 1.1 -0.1
v -0.7 0.3 0.3
v -0.7 0.7 0.3
v -0.6 0.1 0.3
v -0.6 0.3 0.3
v -0.6 0.7 0.3
v -0.6 0.8 0.3
v -0.5 0 0.3
v -0.5 0.1 0.3
v -0.5 0.2 0.3
v -0.4 0.1 0.3
v -0.4 0.2 0.3
v -0.3 0 0.3
v -0.3 0.1 0.3
v 0.1 0.7 0.3
v 0.1 0.8 0.3
v 0.1 0.9 0.3
v 0.2 0.1 0.3
v 0.2 0.2 0.3
v 0.2 0.6 0.3
v 0.2 0.7 0.3
v 0.2 0.9 0.3
v 0.2 1 0.3
v 0.2 1.3 0.3
v 0.3 0 0.3
v 0.3 0.1 0.3
v 0.3 0.2 0.3
v 0.3 0.6 0.3
v 0.3 0.9 0.3
v 0.3 1 0.3
v 0.3 1.1 0.3
v 0.4 0.1 0.3
v 0.4 0.2 0.3
v 0.4 1 0.3
v 0.4 1.1 0.3
v 0.4 1.2 0.3
v 0.4 1.3 0.3
v 0.5 0 0.3
v 0.5 0.1 0.3
v 0.5 0.2 0.3
v 0.5 0.3 0.3
v 0.5 0.9 0.3
v 0.5 1 0.3
v 0.5 1.1 0.3
v 0.5 1.2 0.3
v 0.6 0.3 0.3
v 0.6 1 0.3
v 0.2 1.3 0.2
v 0.2 1.4 0.2
v 0.3 1.3 0.2
v 0.3 1.4 0.2
v 0.5 1 0.2
v 0.5 1.1 0.2
v 0.5 1.2 0.2
v 0.6 0.4 0.2
v 0.6 0.8 0.2
v 0.6 0.9 0.2
v 0.6 1 0.2
v 0.6 1.1 0.2
v 0.6 1.2 0.2
v 0.7 0.4 0.2
v 0.7 0.8 0.2
v 0.7 0.9 0.2
v 0.7 1 0.2
v -0.8 0.4 0.1
v -0.8 0.6 0.1
v -0.7 0.4 0.1
v -0.7 0.6 0.1
v 0.6 1 0.1
v 0.6 1.1 0.1
v 0.7 0.9 0.1
v 0.7 1 0.1
v 0.7 1.1 0.1
v 0.8 0.9 0.1
v 0.8 1 0.1
v 0.8 1.1 0.1
v -0.5 0 -0.1
v -0.5 0.1 -0.1
v -0.4 0.1 -0.1
v -0.3 0 -0.1
v -0.3 0.1 -0.1
v 0.2 1.3 -0.1
v 0.2 1.4 -0.1
v 0.3 0 -0.1
v 0.3 0.1 -0.1
v 0.3 0.2 -0.1
v 0.3 1.2 -0.1
v 0.3 1.3 -0.1
v 0.3 1.4 -0.1
v 0.4 0.1 -0.1
v 0.4 0.2 -0.1
v 0.4 1.2 -0.1
v 0.4 1.3 -0.1
v 0.5 0 -0.1
v 0.5 0.1 -0.1
v -0.5 0 0.1
v -0.5 0.1 0.1
v -0.4 0.1 0.1
v -0.3 0 0.1
v -0.3 0.1 0.1
v 0.2 1.3 0.1
v 0.2 1.4 0.1
v 0.3 0 0.1
v 0.3 0.1 0.1
v 0.3 0.2 0.1
v 0.3 1.2 0.1
v 0.3 1.3 0.1
v 0.3 1.4 0.1
v 0.4 0.1 0.1
v 0.4 0.2 0.1
v 0.4 1.2 0.1
v 0.4 1.3 0.1
v 0.5 0 0.1
v 0.5 0.1 0.1
v -0.8 0.4 -0.1
v -0.8 0.6 -0.1
v -0.7 0.4 -0.1
v -0.7 0.6 -0.1
v 0.6 1 -0.1
v 0.6 1.1 -0.1
v 0.7 0.9 -0.1
v 0.7 1 -0.1
v 0.7 1.1 -0.1
v 0.8 0.9 -0.1
v 0.8 1 -0.1
v 0.8 1.1 -0.1
v 0.2 1.3 -0.2
v 0.2 1.4 -0.2
v 0.3 1.3 -0.2
v 0.3 1.4 -0.2
v 0.5 1 -0.2
v 0.5 1.1 -0.2
v 0.5 1.2 -0.2
v 0.6 0.4 -0.2
v 0.6 0.8 -0.2
v 0.6 0.9 -0.2
v 0.6 1 -0.2
v 0.6 1.1 -0.2
v 0.6 1.2 -0.2
v 0.7 0.4 -0.2
v 0.7 0.8 -0.2
v 0.7 0.9 -0.2
v 0.7 1 -0.2
v -0.7 0.3 -0.3
v -0.7 0.7 -0.3
v -0.6 0.1 -0.3
v -0.6 0.3 -0.3
v -0.6 0.7 -0.3
v -0.6 0.8 -0.3
v -0.5 0 -0.3
v -0.5 0.1 -0.3
v -0.5 0.2 -0.3
v -0.4 0.1 -0.3
v -0.4 0.2 -0.3
v -0.3 0 -0.3
v -0.3 0.1 -0.3
v 0.1 0.7 -0.3
v 0.1 0.8 -0.3
v 0.1 0.9 -0.3
v 0.2 0.1 -0.3
v 0.2 0.2 -0.3
v 0.2 0.6 -0.3
v 0.2 0.7 -0.3
v 0.2 0.9 -0.3
v 0.2 1 -0.3
v 0.2 1.3 -0.3
v 0.3 0 -0.3
v 0.3 0.1 -0.3
v 0.3 0.2 -0.3
v 0.3 0.6 -0.3
v 0.3 0.9 -0.3
v 0.3 1 -0.3
v 0.3 1.1 -0.3
v 0.4 0.1 -0.3
v 0.4 0.2 -0.3
v 0.4 1 -0.3
v 0.4 1.1 -0.3
v 0.4 1.2 -0.3
v 0.4 1.3 -0.3
v 0.5 0 -0.3
v 0.5 0.1 -0.3
v 0.5 0.2 -0.3
v 0.5 0.3 -0.3
v 0.5 0.9 -0.3
v 0.5 1 -0.3
v 0.5 1.1 -0.3
v 0.5 1.2 -0.3
v 0.6 0.3 -0.3
v 0.6 1 -0.3
v -0.5 0 0.3
v -0.3 0 0.3
v 0.3 0 0.3
v 0.5 0 0.3
v -0.5 0 0.1
v -0.3 0 0.1
v 0.3 0 0.1
v 0.5 0 0.1
v -0.5 0 -0.1
v -0.3 0 -0.1
v 0.3 0 -0.1
v 0.5 0 -0.1
v -0.5 0 -0.3
v -0.3 0 -0.3
v 0.3 0 -0.3
v 0.5 0 -0.3
v -0.6 0.1 0.3
v -0.5 0.1 0.3
v 0.2 0.1 0.3
v 0.3 0.1 0.3
v -0.5 0.1 0.1
v -0.4 0.1 0.1
v 0.3 0.1 0.1
v -0.5 0.1 -0.1
v -0.4 0.1 -0.1
v 0.3 0.1 -0.1
v -0.6 0.1 -0.3
v -0.5 0.1 -0.3
v 0.2 0.1 -0.3
v 0.3 0.1 -0.3
v -0.4 0.2 0.3
v 0.2 0.2 0.3
v 0.4 0.2 0.3
v 0.5 0.2 0.3
v 0.3 0.2 0.1
v 0.4 0.2 0.1
v 0.3 0.2 -0.1
v 0.4 0.2 -0.1
v -0.4 0.2 -0.3
v 0.2 0.2 -0.3
v 0.4 0.2 -0.3
v 0.5 0.2 -0.3
v -0.7 0.3 0.3
v -0.6 0.3 0.3
v 0.5 0.3 0.3
v 0.6 0.3 0.3
v -0.7 0.3 -0.3
v -0.6 0.3 -0.3
v 0.5 0.3 -0.3
v 0.6 0.3 -0.3
v 0.6 0.4 0.2
v 0.7 0.4 0.2
v -0.8 0.4 0.1
v -0.7 0.4 0.1
v -0.8 0.4 -0.1
v -0.7 0.4 -0.1
v 0.6 0.4 -0.2
v 0.7 0.4 -0.2
v 0.6 0.9 0.2
v 0.7 0.9 0.2
v 0.7 0.9 0.1
v 0.8 0.9 0.1
v 0.7 0.9 -0.1
v 0.8 0.9 -0.1
v 0.6 0.9 -0.2
v 0.7 0.9 -0.2
v -0.4 0.1 0.3
v -0.3 0.1 0.3
v 0.4 0.1 0.3
v 0.5 0.1 0.3
v -0.4 0.1 0.1
v -0.3 0.1 0.1
v 0.4 0.1 0.1
v 0.5 0.1 0.1
v -0.4 0.1 -0.1
v -0.3 0.1 -0.1
v 0.4 0.1 -0.1
v 0.5 0.1 -0.1
v -0.4 0.1 -0.3
v -0.3 0.1 -0.3
v 0.4 0.1 -0.3
v 0.5 0.1 -0.3
v -0.8 0.6 0.1
v -0.7 0.6 0.1
v -0.8 0.6 -0.1
v -0.7 0.6 -0.1
v -0.7 0.7 0.3
v -0.6 0.7 0.3
v -0.7 0.7 -0.3
v -0.6 0.7 -0.3
v -0.6 0.8 0.3
v 0.1 0.8 0.3
v 0.6 0.8 0.2
v 0.7 0.8 0.2
v 0.6 0.8 -0.2
v 0.7 0.8 -0.2
v -0.6 0.8 -0.3
v 0.1 0.8 -0.3
v 0.1 0.9 0.3
v 0.2 0.9 0.3
v 0.1 0.9 -0.3
v 0.2 0.9 -0.3
v 0.5 1 0.3
v 0.6 1 0.3
v 0.5 1 0.2
v 0.6 1 0.2
v 0.7 1 0.2
v 0.6 1 0.1
v 0.7 1 0.1
v 0.6 1 -0.1
v 0.7 1 -0.1
v 0.5 1 -0.2
v 0.6 1 -0.2
v 0.7 1 -0.2
v 0.5 1 -0.3
v 0.6 1 -0.3
v 0.6 1.1 0.1
v 0.7 1.1 0.1
v 0.8 1.1 0.1
v 0.6 1.1 -0.1
v 0.7 1.1 -0.1
v 0.8 1.1 -0.1
v 0.4 1.2 0.3
v 0.5 1.2 0.3
v 0.5 1.2 0.2
v 0.6 1.2 0.2
v 0.3 1.2 0.1
v 0.4 1.2 0.1
v 0.3 1.2 -0.1
v 0.4 1.2 -0.1
v 0.5 1.2 -0.2
v 0.6 1.2 -0.2
v 0.4 1.2 -0.3
v 0.5 1.2 -0.3
v 0.2 1.3 0.3
v 0.4 1.3 0.3
v 0.2 1.3 0.2
v 0.3 1.3 0.2
v 0.2 1.3 0.1
v 0.3 1.3 0.1
v 0.4 1.3 0.1
v 0.2 1.3 -0.1
v 0.3 1.3 -0.1
v 0.4 1.3 -0.1
v 0.2 1.3 -0.2
v 0.3 1.3 -0.2
v 0.2 1.3 -0.3
v 0.4 1.3 -0.3
v 0.2 1.4 0.2
v 0.3 1.4 0.2
v 0.2 1.4 0.1
v 0.3 1.4 0.1
v 0.2 1.4 -0.1
v 0.3 1.4 -0.1
v 0.2 1.4 -0.2
v 0.3 1.4 -0.2

# faces
f 3/2/1 2/2/1 1/2/1
f 4/2/1 2/2/1 3/2/1
f 7/2/1 6/2/1 5/2/1
f 8/2/1 6/2/1 7/2/1
f 9/2/1 7/2/1 5/2/1
f 10/2/1 6/2/1 8/2/1
f 11/2/1 9/2/1 5/2/1
f 11/2/1 10/2/1 9/2/1
f 12/2/1 6/2/1 10/2/1
f 12/2/1 10/2/1 11/2/1
f 15/2/1 14/2/1 13/2/1
f 16/2/1 14/2/1 15/2/1
f 19/2/1 18/2/1 17/2/1
f 20/2/1 18/2/1 19/2/1
f 25/1/1 22/1/1 21/1/1
f 26/1/1 22/1/1 25/1/1
f 27/1/1 24/1/1 23/1/1
f 28/1/1 24/1/1 27/1/1
f 31/1/1 30/1/1 29/1/1
f 32/1/1 30/1/1 31/1/1
f 35/1/1 34/1/1 33/1/1
f 36/1/1 34/1/1 35/1/1
f 39/1/1 38/1/1 37/1/1
f 40/1/1 38/1/1 39/1/1
f 41/2/1 40/2/1 39/2/1
f 42/2/1 40/2/1 41/2/1
f 43/2/1 40/2/1 42/2/1
f 44/2/1 40/2/1 43/2/1
f 45/2/1 40/2/1 44/2/1
f 46/2/1 40/2/1 45/2/1
f 47/2/1 43/2/1 42/2/1
f 48/2/1 43/2/1 47/2/1
f 49/2/1 45/2/1 44/2/1
f 50/2/1 45/2/1 49/2/1
f 55/1/1 52/1/1 51/1/1
f 56/1/1 52/1/1 55/1/1
f 57/1/1 54/1/1 53/1/1
f 58/1/1 54/1/1 57/1/1
f 59/1/2 60/1/2 63/1/2
f 61/1/2 62/1/2 63/1/2
f 60/1/2 61/1/2 63/1/2
f 63/1/2 62/1/2 64/1/2
f 65/1/2 66/1/2 69/1/2
f 69/1/2 66/1/2 70/1/2
f 67/1/2 68/1/2 71/1/2
f 71/1/2 68/1/2 72/1/2
f 73/1/2 74/1/2 75/1/2
f 75/1/2 74/1/2 76/1/2
f 77/2/2 78/2/2 80/2/2
f 80/2/2 78/2/2 81/2/2
f 79/2/2 80/2/2 83/2/2
f 83/2/2 80/2/2 84/2/2
f 81/2/2 82/2/2 85/2/2
f 85/2/2 82/2/2 86/2/2
f 87/1/2 88/1/2 91/1/2
f 91/1/2 88/1/2 92/1/2
f 89/1/2 90/1/2 93/1/2
f 93/1/2 90/1/2 94/1/2
f 95/2/2 96/2/2 99/2/2
f 99/2/2 96/2/2 100/2/2
f 97/2/2 98/2/2 101/2/2
f 101/2/2 98/2/2 102/2/2
f 103/1/2 104/1/2 107/1/2
f 107/1/2 104/1/2 108/1/2
f 105/1/2 106/1/2 109/1/2
f 109/1/2 106/1/2 110/1/2
f 111/1/2 112/1/2 113/1/2
f 113/1/2 112/1/2 114/1/2
f 115/3/2 116/3/2 119/3/2
f 119/3/2 116/3/2 120/3/2
f 117/3/2 118/3/2 121/3/2
f 121/3/2 118/3/2 122/3/2
f 119/2/2 120/2/2 123/2/2
f 123/2/2 120/2/2 124/2/2
f 121/2/2 122/2/2 125/2/2
f 125/2/2 122/2/2 126/2/2
f 127/1/2 128/1/2 129/1/2
f 129/1/2 128/1/2 130/1/2
f 127/1/2 129/1/2 131/1/2
f 130/1/2 128/1/2 132/1/2
f 127/1/2 131/1/2 133/1/2
f 131/1/2 132/1/2 133/1/2
f 132/1/2 128/1/2 134/1/2
f 133/1/2 132/1/2 134/1/2
f 127/1/2 133/1/2 135/1/2
f 135/1/2 133/1/2 136/1/2
f 134/1/2 128/1/2 139/1/2
f 139/1/2 128/1/2 140/1/2
f 136/1/2 137/1/2 141/1/2
f 141/1/2 137/1/2 142/1/2
f 138/1/2 139/1/2 143/1/2
f 143/1/2 139/1/2 144/1/2
f 141/2/2 142/2/2 145/2/2
f 142/2/2 143/2/2 145/2/2
f 143/2/2 144/2/2 145/2/2
f 145/2/2 144/2/2 146/2/2
f 147/1/2 148/1/2 149/1/2
f 149/1/2 148/1/2 150/1/2
f 151/1/2 152/1/2 155/1/2
f 155/1/2 152/1/2 156/1/2
f 153/1/2 154/1/2 157/1/2
f 157/1/2 154/1/2 158/1/2
f 159/1/2 160/1/2 161/1/2
f 161/1/2 160/1/2 162/1/2
f 161/3/2 162/3/2 163/3/2
f 163/3/2 162/3/2 164/3/2
f 168/2/3 166/2/3 165/2/3
f 169/2/3 166/2/3 168/2/3
f 172/2/3 168/2/3 167/2/3
f 172/2/3 170/2/3 169/2/3
f 172/2/3 169/2/3 168/2/3
f 173/2/3 170/2/3 172/2/3
f 174/1/3 172/1/3 171/1/3
f 174/1/3 173/1/3 172/1/3
f 175/2/3 170/2/3 173/2/3
f 175/1/3 173/1/3 174/1/3
f 176/1/3 174/1/3 171/1/3
f 177/1/3 174/1/3 176/1/3
f 178/2/3 170/2/3 175/2/3
f 179/2/3 170/2/3 178/2/3
f 182/2/3 178/2/3 175/2/3
f 183/2/3 178/2/3 182/2/3
f 184/1/3 180/1/3 179/1/3
f 184/2/3 178/2/3 183/2/3
f 184/1/3 179/1/3 178/1/3
f 185/1/3 180/1/3 184/1/3
f 189/1/3 182/1/3 181/1/3
f 190/2/3 183/2/3 182/2/3
f 190/1/3 182/1/3 189/1/3
f 191/1/3 184/1/3 183/1/3
f 191/2/3 183/2/3 190/2/3
f 191/1/3 185/1/3 184/1/3
f 191/1/3 186/1/3 185/1/3
f 192/1/3 186/1/3 191/1/3
f 193/2/3 187/2/3 186/2/3
f 193/1/3 186/1/3 192/1/3
f 194/2/3 187/2/3 193/2/3
f 195/1/3 189/1/3 188/1/3
f 195/1/3 192/1/3 191/1/3
f 195/1/3 190/1/3 189/1/3
f 195/1/3 191/1/3 190/1/3
f 196/1/3 192/1/3 195/1/3
f 197/1/3 194/1/3 193/1/3
f 197/2/3 193/2/3 192/2/3
f 198/2/3 187/2/3 194/2/3
f 198/1/3 194/1/3 197/1/3
f 199/2/3 187/2/3 198/2/3
f 200/2/3 187/2/3 199/2/3
f 201/1/3 195/1/3 188/1/3
f 202/1/3 195/1/3 201/1/3
f 203/1/3 192/1/3 196/1/3
f 204/1/3 192/1/3 203/1/3
f 205/2/3 197/2/3 192/2/3
f 205/1/3 192/1/3 204/1/3
f 206/3/3 198/3/3 197/3/3
f 206/2/3 197/2/3 205/2/3
f 207/2/3 199/2/3 198/2/3
f 207/3/3 198/3/3 206/3/3
f 208/2/3 199/2/3 207/2/3
f 209/1/3 206/1/3 205/1/3
f 209/1/3 205/1/3 204/1/3
f 210/1/3 206/1/3 209/1/3
f 213/2/3 212/2/3 211/2/3
f 214/2/3 212/2/3 213/2/3
f 221/1/3 216/1/3 215/1/3
f 222/2/3 217/2/3 216/2/3
f 222/1/3 216/1/3 221/1/3
f 223/2/3 217/2/3 222/2/3
f 224/1/3 219/1/3 218/1/3
f 225/1/3 219/1/3 224/1/3
f 226/1/3 221/1/3 220/1/3
f 227/1/3 221/1/3 226/1/3
f 230/2/3 229/2/3 228/2/3
f 231/2/3 229/2/3 230/2/3
f 235/1/3 233/1/3 232/1/3
f 236/1/3 233/1/3 235/1/3
f 237/1/3 235/1/3 234/1/3
f 238/3/3 236/3/3 235/3/3
f 238/1/3 235/1/3 237/1/3
f 239/3/3 236/3/3 238/3/3
f 242/1/3 241/1/3 240/1/3
f 243/1/3 242/1/3 240/1/3
f 244/1/3 242/1/3 243/1/3
f 251/2/3 246/2/3 245/2/3
f 252/2/3 246/2/3 251/2/3
f 253/1/3 249/1/3 248/1/3
f 253/1/3 248/1/3 247/1/3
f 254/1/3 249/1/3 253/1/3
f 255/2/3 251/2/3 250/2/3
f 256/2/3 251/2/3 255/2/3
f 257/1/3 253/1/3 247/1/3
f 258/1/3 253/1/3 257/1/3
f 259/1/4 260/1/4 261/1/4
f 259/1/4 261/1/4 262/1/4
f 262/1/4 261/1/4 263/1/4
f 264/2/4 265/2/4 270/2/4
f 270/2/4 265/2/4 271/2/4
f 267/1/4 268/1/4 272/1/4
f 266/1/4 267/1/4 272/1/4
f 272/1/4 268/1/4 273/1/4
f 269/2/4 270/2/4 274/2/4
f 274/2/4 270/2/4 275/2/4
f 266/1/4 272/1/4 276/1/4
f 276/1/4 272/1/4 277/1/4
f 278/2/4 279/2/4 280/2/4
f 280/2/4 279/2/4 281/2/4
f 282/1/4 283/1/4 285/1/4
f 285/1/4 283/1/4 286/1/4
f 284/1/4 285/1/4 287/1/4
f 285/3/4 286/3/4 288/3/4
f 287/1/4 285/1/4 288/1/4
f 288/3/4 286/3/4 289/3/4
f 290/2/4 291/2/4 292/2/4
f 292/2/4 291/2/4 293/2/4
f 294/1/4 295/1/4 300/1/4
f 295/2/4 296/2/4 301/2/4
f 300/1/4 295/1/4 301/1/4
f 301/2/4 296/2/4 302/2/4
f 297/1/4 298/1/4 303/1/4
f 303/1/4 298/1/4 304/1/4
f 299/1/4 300/1/4 305/1/4
f 305/1/4 300/1/4 306/1/4
f 307/2/4 308/2/4 310/2/4
f 310/2/4 308/2/4 311/2/4
f 309/2/4 310/2/4 314/2/4
f 311/2/4 312/2/4 314/2/4
f 310/2/4 311/2/4 314/2/4
f 314/2/4 312/2/4 315/2/4
f 313/1/4 314/1/4 316/1/4
f 314/1/4 315/1/4 316/1/4
f 315/2/4 312/2/4 317/2/4
f 316/1/4 315/1/4 317/1/4
f 313/1/4 316/1/4 318/1/4
f 318/1/4 316/1/4 319/1/4
f 317/2/4 312/2/4 320/2/4
f 320/2/4 312/2/4 321/2/4
f 317/2/4 320/2/4 324/2/4
f 324/2/4 320/2/4 325/2/4
f 321/1/4 322/1/4 326/1/4
f 325/2/4 320/2/4 326/2/4
f 320/1/4 321/1/4 326/1/4
f 326/1/4 322/1/4 327/1/4
f 323/1/4 324/1/4 331/1/4
f 324/2/4 325/2/4 332/2/4
f 331/1/4 324/1/4 332/1/4
f 325/1/4 326/1/4 333/1/4
f 332/2/4 325/2/4 333/2/4
f 326/1/4 327/1/4 333/1/4
f 327/1/4 328/1/4 333/1/4
f 333/1/4 328/1/4 334/1/4
f 328/2/4 329/2/4 335/2/4
f 334/1/4 328/1/4 335/1/4
f 335/2/4 329/2/4 336/2/4
f 330/1/4 331/1/4 337/1/4
f 333/1/4 334/1/4 337/1/4
f 331/1/4 332/1/4 337/1/4
f 332/1/4 333/1/4 337/1/4
f 337/1/4 334/1/4 338/1/4
f 335/1/4 336/1/4 339/1/4
f 334/2/4 335/2/4 339/2/4
f 336/2/4 329/2/4 340/2/4
f 339/1/4 336/1/4 340/1/4
f 340/2/4 329/2/4 341/2/4
f 341/2/4 329/2/4 342/2/4
f 330/1/4 337/1/4 343/1/4
f 343/1/4 337/1/4 344/1/4
f 338/1/4 334/1/4 345/1/4
f 345/1/4 334/1/4 346/1/4
f 334/2/4 339/2/4 347/2/4
f 346/1/4 334/1/4 347/1/4
f 339/3/4 340/3/4 348/3/4
f 347/2/4 339/2/4 348/2/4
f 340/2/4 341/2/4 349/2/4
f 348/3/4 340/3/4 349/3/4
f 349/2/4 341/2/4 350/2/4
f 347/1/4 348/1/4 351/1/4
f 346/1/4 347/1/4 351/1/4
f 351/1/4 348/1/4 352/1/4
f 357/1/5 354/1/5 353/1/5
f 358/1/5 354/1/5 357/1/5
f 359/1/5 356/1/5 355/1/5
f 360/1/5 356/1/5 359/1/5
f 365/1/5 362/1/5 361/1/5
f 366/1/5 362/1/5 365/1/5
f 367/1/5 364/1/5 363/1/5
f 368/1/5 364/1/5 367/1/5
f 373/2/5 370/2/5 369/2/5
f 375/1/5 372/1/5 371/1/5
f 376/1/5 374/1/5 373/1/5
f 376/2/5 373/2/5 369/2/5
f 377/1/5 374/1/5 376/1/5
f 378/1/5 375/1/5 371/1/5
f 379/2/5 376/2/5 369/2/5
f 380/2/5 376/2/5 379/2/5
f 381/1/5 378/1/5 371/1/5
f 382/1/5 378/1/5 381/1/5
f 388/1/5 386/1/5 385/1/5
f 389/1/5 388/1/5 387/1/5
f 390/1/5 386/1/5 388/1/5
f 390/1/5 388/1/5 389/1/5
f 391/2/5 384/2/5 383/2/5
f 392/2/5 384/2/5 391/2/5
f 393/1/5 386/1/5 390/1/5
f 394/1/5 386/1/5 393/1/5
f 399/2/5 396/2/5 395/2/5
f 400/2/5 396/2/5 399/2/5
f 401/1/5 398/1/5 397/1/5
f 402/1/5 398/1/5 401/1/5
f 407/2/5 406/2/5 405/2/5
f 408/2/5 406/2/5 407/2/5
f 409/1/5 404/1/5 403/1/5
f 410/1/5 404/1/5 409/1/5
f 413/1/5 412/1/5 411/1/5
f 415/1/5 413/1/5 411/1/5
f 415/1/5 414/1/5 413/1/5
f 416/1/5 414/1/5 415/1/5
f 417/1/5 415/1/5 411/1/5
f 418/1/5 415/1/5 417/1/5
f 419/1/6 420/1/6 423/1/6
f 423/1/6 420/1/6 424/1/6
f 421/1/6 422/1/6 425/1/6
f 425/1/6 422/1/6 426/1/6
f 427/1/6 428/1/6 431/1/6
f 431/1/6 428/1/6 432/1/6
f 429/1/6 430/1/6 433/1/6
f 433/1/6 430/1/6 434/1/6
f 435/2/6 436/2/6 437/2/6
f 437/2/6 436/2/6 438/2/6
f 439/2/6 440/2/6 441/2/6
f 441/2/6 440/2/6 442/2/6
f 445/1/6 446/1/6 447/1/6
f 447/1/6 446/1/6 448/1/6
f 443/2/6 444/2/6 449/2/6
f 449/2/6 444/2/6 450/2/6
f 451/1/6 452/1/6 453/1/6
f 453/1/6 452/1/6 454/1/6
f 455/1/6 456/1/6 457/1/6
f 457/1/6 456/1/6 458/1/6
f 458/1/6 459/1/6 460/1/6
f 460/1/6 459/1/6 461/1/6
f 462/1/6 463/1/6 465/1/6
f 465/1/6 463/1/6 466/1/6
f 464/1/6 465/1/6 467/1/6
f 467/1/6 465/1/6 468/1/6
f 469/1/6 470/1/6 472/1/6
f 470/3/6 471/3/6 473/3/6
f 472/1/6 470/1/6 473/1/6
f 473/3/6 471/3/6 474/3/6
f 475/2/6 476/2/6 477/2/6
f 475/2/6 477/2/6 480/2/6
f 477/2/6 478/2/6 480/2/6
f 479/2/6 480/2/6 481/2/6
f 480/2/6 478/2/6 482/2/6
f 481/2/6 480/2/6 482/2/6
f 482/2/6 478/2/6 483/2/6
f 483/2/6 478/2/6 484/2/6
f 482/2/6 483/2/6 485/2/6
f 485/2/6 483/2/6 486/2/6
f 487/2/6 488/2/6 489/2/6
f 489/2/6 488/2/6 490/2/6
f 490/2/6 488/2/6 492/2/6
f 492/2/6 488/2/6 493/2/6
f 491/2/6 492/2/6 494/2/6
f 494/2/6 492/2/6 495/2/6
f 495/2/6 496/2/6 498/2/6
f 497/2/6 498/2/6 499/2/6
f 498/2/6 496/2/6 500/2/6
f 499/2/6 498/2/6 500/2/6
f 501/2/6 502/2/6 503/2/6
f 503/2/6 502/2/6 504/2/6
f 505/2/6 506/2/6 507/2/6
f 507/2/6 506/2/6 508/2/6
